<svg width="61" height="61" viewBox="0 0 61 61" fill="none" xmlns="http://www.w3.org/2000/svg">
<rect x="0.5" y="0.600098" width="60" height="60" rx="2" fill="#100F0F"/>
<path d="M37.75 30.4438C38.1875 30.6001 38.5 31.0063 38.5 31.4751V34.9126C38.5 35.3501 38.25 35.7563 37.875 35.9438L34.75 37.5063C34.4375 37.6626 34.0625 37.6626 33.7188 37.5063L30.5 35.8813L27.25 37.5063C26.9375 37.6626 26.5625 37.6626 26.2188 37.5063L23.0938 35.9438C22.7188 35.7563 22.5 35.3501 22.5 34.9126V31.4751C22.5 31.0063 22.7812 30.6001 23.2188 30.4438L26.2188 29.2876V25.9126C26.2188 25.4438 26.5312 25.0376 26.9688 24.8501L30.0938 23.6938C30.3438 23.6001 30.625 23.6001 30.875 23.6938L34 24.8501C34.4375 25.0376 34.75 25.4438 34.75 25.9126V29.2876L37.75 30.4438ZM33.6875 29.3188V27.0376L31.0312 28.1938V30.3188L33.6875 29.3188ZM27.3125 25.8813L30.5 27.1938L33.6875 25.8813L30.5 24.6626L27.3125 25.8813ZM29.9375 34.9751V32.6001L27.2812 33.8188V36.2876L29.9375 34.9751ZM29.9375 31.4751V31.4438L26.75 30.2563L23.5625 31.4438V31.4751L26.75 32.7563L29.9375 31.4751ZM37.4375 34.9751V32.6001L34.7812 33.8188V36.2876L37.4375 34.9751ZM37.4375 31.4751V31.4438L34.25 30.2563L31.0625 31.4438V31.4751L34.25 32.7563L37.4375 31.4751Z" fill="white"/>
</svg>
