<svg width="61" height="61" viewBox="0 0 61 61" fill="none" xmlns="http://www.w3.org/2000/svg">
<rect x="0.5" y="0.399902" width="60" height="60" rx="2" fill="#100F0F"/>
<path d="M27.5312 33.7437C27.9375 34.1812 28.5312 34.3999 29.125 34.3999C29.5312 34.3999 29.9062 34.3062 30.25 34.1187L28.5938 38.1187C28.4688 38.4312 28.0312 38.5249 27.7812 38.2437L26.6562 37.0562L25 37.1187C24.6562 37.1499 24.375 36.7749 24.5312 36.4312L25.9375 32.9624C26.1875 33.1499 26.4375 33.3062 26.75 33.3687C27.375 33.5562 27.25 33.4624 27.5312 33.7437ZM36.4375 36.4312C36.5938 36.7749 36.3125 37.1499 35.9688 37.1187L34.3125 37.0562L33.1875 38.2437C32.9375 38.5249 32.5 38.4312 32.375 38.1187L30.7188 34.1187C31.0625 34.3062 31.4375 34.3999 31.8438 34.3999C32.4375 34.3999 33.0312 34.1812 33.4375 33.7437C33.7188 33.4624 33.5625 33.5562 34.25 33.3687C34.5312 33.3062 34.7812 33.1499 35.0312 32.9624L36.4375 36.4312ZM32.7188 33.0249C32.2812 33.4624 31.6562 33.5249 31.1562 33.2124C30.9688 33.0874 30.7188 33.0249 30.4688 33.0249C30.25 33.0249 30 33.0874 29.8125 33.2124C29.3125 33.5249 28.6875 33.4624 28.2812 33.0249C27.8125 32.5562 27.75 32.5874 27.0625 32.3999C26.625 32.3062 26.2812 31.9624 26.1562 31.4937C25.9375 30.6187 26 30.7124 25.3438 30.0874C25.0312 29.7437 24.9062 29.2749 25.0312 28.8374C25.25 27.9624 25.25 28.0874 25.0312 27.1812C24.9062 26.7437 25.0312 26.2749 25.3438 25.9624C26 25.3062 25.9375 25.3999 26.1562 24.5249C26.2812 24.0874 26.625 23.7437 27.0625 23.6187C27.9375 23.3687 27.8125 23.4312 28.4688 22.7749C28.7812 22.4624 29.25 22.3374 29.6875 22.4624C30.5312 22.6812 30.4375 22.6812 31.2812 22.4624C31.7188 22.3374 32.1875 22.4624 32.5 22.7749C33.1562 23.4312 33.0312 23.3687 33.9062 23.6187C34.3438 23.7437 34.6875 24.0874 34.8125 24.5249C35.0312 25.3999 34.9688 25.3062 35.625 25.9624C35.9375 26.2749 36.0625 26.7437 35.9375 27.1812C35.7188 28.0874 35.7188 27.9624 35.9375 28.8374C36.0625 29.2749 35.9375 29.7437 35.625 30.0874C34.9688 30.7124 35.0312 30.6187 34.8125 31.4937C34.6875 31.9624 34.3438 32.3062 33.9062 32.3999C33.25 32.5874 33.1875 32.5562 32.7188 33.0249ZM27.5312 27.8999C27.5312 29.5562 28.8438 30.8999 30.5 30.8999C32.125 30.8999 33.4375 29.5562 33.4375 27.8999C33.4375 26.2437 32.125 24.8999 30.5 24.8999C28.8438 24.8999 27.5312 26.2437 27.5312 27.8999Z" fill="white"/>
</svg>
