<svg width="61" height="61" viewBox="0 0 61 61" fill="none" xmlns="http://www.w3.org/2000/svg">
<rect x="0.5" y="0.200195" width="60" height="60" rx="2" fill="#100F0F"/>
<path d="M27.5312 33.5439C27.9375 33.9814 28.5312 34.2002 29.125 34.2002C29.5312 34.2002 29.9062 34.1064 30.25 33.9189L28.5938 37.9189C28.4688 38.2314 28.0312 38.3252 27.7812 38.0439L26.6562 36.8564L25 36.9189C24.6562 36.9502 24.375 36.5752 24.5312 36.2314L25.9375 32.7627C26.1875 32.9502 26.4375 33.1064 26.75 33.1689C27.375 33.3564 27.25 33.2627 27.5312 33.5439ZM36.4375 36.2314C36.5938 36.5752 36.3125 36.9502 35.9688 36.9189L34.3125 36.8564L33.1875 38.0439C32.9375 38.3252 32.5 38.2314 32.375 37.9189L30.7188 33.9189C31.0625 34.1064 31.4375 34.2002 31.8438 34.2002C32.4375 34.2002 33.0312 33.9814 33.4375 33.5439C33.7188 33.2627 33.5625 33.3564 34.25 33.1689C34.5312 33.1064 34.7812 32.9502 35.0312 32.7627L36.4375 36.2314ZM32.7188 32.8252C32.2812 33.2627 31.6562 33.3252 31.1562 33.0127C30.9688 32.8877 30.7188 32.8252 30.4688 32.8252C30.25 32.8252 30 32.8877 29.8125 33.0127C29.3125 33.3252 28.6875 33.2627 28.2812 32.8252C27.8125 32.3564 27.75 32.3877 27.0625 32.2002C26.625 32.1064 26.2812 31.7627 26.1562 31.2939C25.9375 30.4189 26 30.5127 25.3438 29.8877C25.0312 29.5439 24.9062 29.0752 25.0312 28.6377C25.25 27.7627 25.25 27.8877 25.0312 26.9814C24.9062 26.5439 25.0312 26.0752 25.3438 25.7627C26 25.1064 25.9375 25.2002 26.1562 24.3252C26.2812 23.8877 26.625 23.5439 27.0625 23.4189C27.9375 23.1689 27.8125 23.2314 28.4688 22.5752C28.7812 22.2627 29.25 22.1377 29.6875 22.2627C30.5312 22.4814 30.4375 22.4814 31.2812 22.2627C31.7188 22.1377 32.1875 22.2627 32.5 22.5752C33.1562 23.2314 33.0312 23.1689 33.9062 23.4189C34.3438 23.5439 34.6875 23.8877 34.8125 24.3252C35.0312 25.2002 34.9688 25.1064 35.625 25.7627C35.9375 26.0752 36.0625 26.5439 35.9375 26.9814C35.7188 27.8877 35.7188 27.7627 35.9375 28.6377C36.0625 29.0752 35.9375 29.5439 35.625 29.8877C34.9688 30.5127 35.0312 30.4189 34.8125 31.2939C34.6875 31.7627 34.3438 32.1064 33.9062 32.2002C33.25 32.3877 33.1875 32.3564 32.7188 32.8252ZM27.5312 27.7002C27.5312 29.3564 28.8438 30.7002 30.5 30.7002C32.125 30.7002 33.4375 29.3564 33.4375 27.7002C33.4375 26.0439 32.125 24.7002 30.5 24.7002C28.8438 24.7002 27.5312 26.0439 27.5312 27.7002Z" fill="white"/>
</svg>
