<svg width="13" height="17" viewBox="0 0 13 17" fill="none" xmlns="http://www.w3.org/2000/svg">
<path d="M3.53125 11.7437C3.9375 12.1812 4.53125 12.3999 5.125 12.3999C5.53125 12.3999 5.90625 12.3062 6.25 12.1187L4.59375 16.1187C4.46875 16.4312 4.03125 16.5249 3.78125 16.2437L2.65625 15.0562L1 15.1187C0.65625 15.1499 0.375 14.7749 0.53125 14.4312L1.9375 10.9624C2.1875 11.1499 2.4375 11.3062 2.75 11.3687C3.375 11.5562 3.25 11.4624 3.53125 11.7437ZM12.4375 14.4312C12.5938 14.7749 12.3125 15.1499 11.9688 15.1187L10.3125 15.0562L9.1875 16.2437C8.9375 16.5249 8.5 16.4312 8.375 16.1187L6.71875 12.1187C7.0625 12.3062 7.4375 12.3999 7.84375 12.3999C8.4375 12.3999 9.03125 12.1812 9.4375 11.7437C9.71875 11.4624 9.5625 11.5562 10.25 11.3687C10.5312 11.3062 10.7812 11.1499 11.0312 10.9624L12.4375 14.4312ZM8.71875 11.0249C8.28125 11.4624 7.65625 11.5249 7.15625 11.2124C6.96875 11.0874 6.71875 11.0249 6.46875 11.0249C6.25 11.0249 6 11.0874 5.8125 11.2124C5.3125 11.5249 4.6875 11.4624 4.28125 11.0249C3.8125 10.5562 3.75 10.5874 3.0625 10.3999C2.625 10.3062 2.28125 9.9624 2.15625 9.49365C1.9375 8.61865 2 8.7124 1.34375 8.0874C1.03125 7.74365 0.90625 7.2749 1.03125 6.8374C1.25 5.9624 1.25 6.0874 1.03125 5.18115C0.90625 4.74365 1.03125 4.2749 1.34375 3.9624C2 3.30615 1.9375 3.3999 2.15625 2.5249C2.28125 2.0874 2.625 1.74365 3.0625 1.61865C3.9375 1.36865 3.8125 1.43115 4.46875 0.774902C4.78125 0.462402 5.25 0.337402 5.6875 0.462402C6.53125 0.681152 6.4375 0.681152 7.28125 0.462402C7.71875 0.337402 8.1875 0.462402 8.5 0.774902C9.15625 1.43115 9.03125 1.36865 9.90625 1.61865C10.3438 1.74365 10.6875 2.0874 10.8125 2.5249C11.0312 3.3999 10.9688 3.30615 11.625 3.9624C11.9375 4.2749 12.0625 4.74365 11.9375 5.18115C11.7188 6.0874 11.7188 5.9624 11.9375 6.8374C12.0625 7.2749 11.9375 7.74365 11.625 8.0874C10.9688 8.7124 11.0312 8.61865 10.8125 9.49365C10.6875 9.9624 10.3438 10.3062 9.90625 10.3999C9.25 10.5874 9.1875 10.5562 8.71875 11.0249ZM3.53125 5.8999C3.53125 7.55615 4.84375 8.8999 6.5 8.8999C8.125 8.8999 9.4375 7.55615 9.4375 5.8999C9.4375 4.24365 8.125 2.8999 6.5 2.8999C4.84375 2.8999 3.53125 4.24365 3.53125 5.8999Z" fill="white"/>
</svg>
