<svg xmlns="http://www.w3.org/2000/svg" width="17" height="15" viewBox="0 0 17 15" fill="none" transform="matrix(1, 0, 0, 1, 0, 0)">
<path d="M15.75 7.16064C16.1875 7.31689 16.5 7.72314 16.5 8.19189V11.6294C16.5 12.0669 16.25 12.4731 15.875 12.6606L12.75 14.2231C12.4375 14.3794 12.0625 14.3794 11.7188 14.2231L8.5 12.5981L5.25 14.2231C4.9375 14.3794 4.5625 14.3794 4.21875 14.2231L1.09375 12.6606C0.71875 12.4731 0.5 12.0669 0.5 11.6294V8.19189C0.5 7.72314 0.78125 7.31689 1.21875 7.16064L4.21875 6.00439V2.62939C4.21875 2.16064 4.53125 1.75439 4.96875 1.56689L8.09375 0.410645C8.34375 0.316895 8.625 0.316895 8.875 0.410645L12 1.56689C12.4375 1.75439 12.75 2.16064 12.75 2.62939V6.00439L15.75 7.16064ZM11.6875 6.03564V3.75439L9.03125 4.91064V7.03564L11.6875 6.03564ZM5.3125 2.59814L8.5 3.91064L11.6875 2.59814L8.5 1.37939L5.3125 2.59814ZM7.9375 11.6919V9.31689L5.28125 10.5356V13.0044L7.9375 11.6919ZM7.9375 8.19189V8.16064L4.75 6.97314L1.5625 8.16064V8.19189L4.75 9.47314L7.9375 8.19189ZM15.4375 11.6919V9.31689L12.7812 10.5356V13.0044L15.4375 11.6919ZM15.4375 8.19189V8.16064L12.25 6.97314L9.0625 8.16064V8.19189L12.25 9.47314L15.4375 8.19189Z" fill="#070707"/>
</svg>