<svg width="65" height="65" viewBox="0 0 65 65" fill="none" xmlns="http://www.w3.org/2000/svg">
<rect x="0.479996" y="0.800049" width="64" height="64" rx="4" fill="black"/>
<g clip-path="url(#clip0_3_291)">
<path d="M24.64 17.7C24.8889 17.7 25.0911 17.7777 25.2467 17.9333C25.4022 18.0888 25.48 18.2911 25.48 18.54V19.4733H39.48V18.54C39.48 18.2911 39.5578 18.0888 39.7133 17.9333C39.8689 17.7777 40.0711 17.7 40.32 17.7C40.5689 17.7 40.7867 17.7777 40.9733 17.9333C41.16 18.0888 41.2533 18.2911 41.2533 18.54V19.4733H43.0267C43.96 19.4733 44.7689 19.8155 45.4533 20.5C46.1378 21.1844 46.48 21.9933 46.48 22.9266V42.1533C46.48 43.1488 46.1378 43.9888 45.4533 44.6733C44.7689 45.3577 43.9289 45.7 42.9333 45.7H22.0267C21.0311 45.7 20.1911 45.3577 19.5067 44.6733C18.8222 43.9888 18.48 43.18 18.48 42.2466V22.9266C18.48 21.9933 18.8222 21.1844 19.5067 20.5C20.1911 19.8155 21.0311 19.4733 22.0267 19.4733H23.7067V18.54C23.7067 18.2911 23.8 18.0888 23.9867 17.9333C24.1733 17.7777 24.3911 17.7 24.64 17.7ZM22.0267 21.1533C21.5289 21.1533 21.1089 21.3244 20.7667 21.6666C20.4244 22.0088 20.2533 22.4288 20.2533 22.9266V24.7H44.7067V22.9266C44.7067 22.4288 44.5356 22.0088 44.1933 21.6666C43.8511 21.3244 43.4622 21.1533 43.0267 21.1533H22.0267ZM44.7067 26.4733H20.2533V42.1533C20.2533 42.6511 20.4244 43.0711 20.7667 43.4133C21.1089 43.7555 21.5289 43.9266 22.0267 43.9266H43.0267C43.4622 43.9266 43.8511 43.7555 44.1933 43.4133C44.5356 43.0711 44.7067 42.6511 44.7067 42.1533V26.4733ZM37.7067 30.86C37.7067 30.6111 37.8 30.3933 37.9867 30.2066C38.1733 30.02 38.3911 29.9266 38.64 29.9266H40.32C40.5689 29.9266 40.7867 30.02 40.9733 30.2066C41.16 30.3933 41.2533 30.6111 41.2533 30.86V32.54C41.2533 32.7888 41.16 33.0066 40.9733 33.1933C40.7867 33.38 40.5689 33.4733 40.32 33.4733H38.64C38.3911 33.4733 38.1733 33.38 37.9867 33.1933C37.8 33.0066 37.7067 32.7888 37.7067 32.54V30.86ZM32.48 30.86C32.48 30.6111 32.5578 30.3933 32.7133 30.2066C32.8689 30.02 33.0711 29.9266 33.32 29.9266H35.0933C35.3422 29.9266 35.56 30.02 35.7467 30.2066C35.9333 30.3933 36.0267 30.6111 36.0267 30.86V32.54C36.0267 32.7888 35.9333 33.0066 35.7467 33.1933C35.56 33.38 35.3422 33.4733 35.0933 33.4733H33.32C33.0711 33.4733 32.8689 33.38 32.7133 33.1933C32.5578 33.0066 32.48 32.7888 32.48 32.54V30.86ZM29.0267 36.0866C28.9644 35.8377 29.0267 35.62 29.2133 35.4333C29.4 35.2466 29.6178 35.1533 29.8667 35.1533H31.64C31.8889 35.2155 32.0911 35.3244 32.2467 35.48C32.4022 35.6355 32.48 35.8377 32.48 36.0866V37.86C32.48 38.1088 32.4022 38.3111 32.2467 38.4666C32.0911 38.6222 31.8889 38.7 31.64 38.7H29.8667C29.6178 38.7 29.4 38.6222 29.2133 38.4666C29.0267 38.3111 28.9333 38.1088 28.9333 37.86L29.0267 36.0866ZM23.7067 36.0866C23.7067 35.8377 23.8 35.62 23.9867 35.4333C24.1733 35.2466 24.3911 35.1533 24.64 35.1533H26.32C26.5689 35.2155 26.7867 35.3244 26.9733 35.48C27.16 35.6355 27.2533 35.8377 27.2533 36.0866V37.86C27.2533 38.1088 27.16 38.3111 26.9733 38.4666C26.7867 38.6222 26.5689 38.7 26.32 38.7H24.64C24.3911 38.7 24.1733 38.6222 23.9867 38.4666C23.8 38.3111 23.7067 38.1088 23.7067 37.86V36.0866Z" fill="white"/>
</g>
<defs>
<clipPath id="clip0_3_291">
<rect width="28" height="28" fill="white" transform="matrix(1 0 0 -1 18.48 45.7)"/>
</clipPath>
</defs>
</svg>
