<svg width="37" height="37" viewBox="0 0 37 37" fill="none" xmlns="http://www.w3.org/2000/svg">
<g clip-path="url(#clip0_3_33)">
<path d="M14.06 5.14001C14.22 5.22001 14.4 5.32001 14.6 5.44002C14.8 5.56001 14.94 5.74002 15.02 5.98001L23.06 27.82L26.42 18.34C26.5 18.1 26.64 17.92 26.84 17.8C27.04 17.68 27.26 17.62 27.5 17.62H35.42C35.74 17.62 36 17.72 36.2 17.92C36.4 18.12 36.5 18.38 36.5 18.7C36.5 19.02 36.4 19.28 36.2 19.48C36 19.68 35.74 19.78 35.42 19.78H28.34L24.02 31.42C23.94 31.66 23.8 31.84 23.6 31.96C23.4 32.08 23.2 32.14 23 32.14C22.8 32.14 22.6 32.08 22.4 31.96C22.2 31.84 22.06 31.66 21.98 31.42L14.06 9.58002L10.58 19.06C10.5 19.3 10.36 19.48 10.16 19.6C9.96 19.72 9.74 19.78 9.5 19.78H1.58C1.26 19.78 1 19.68 0.8 19.48C0.6 19.28 0.5 19.02 0.5 18.7C0.5 18.38 0.6 18.12 0.8 17.92C1 17.72 1.26 17.62 1.58 17.62H8.66L12.98 5.98001C13.06 5.74002 13.2 5.56001 13.4 5.44002C13.6 5.32001 13.78 5.22001 13.94 5.14001H14.06Z" fill="#898989"/>
</g>
<defs>
<clipPath id="clip0_3_33">
<rect width="36" height="36" fill="white" transform="matrix(1 0 0 -1 0.5 36.7)"/>
</clipPath>
</defs>
</svg>
