<svg width="37" height="37" viewBox="0 0 37 37" fill="none" xmlns="http://www.w3.org/2000/svg">
<g clip-path="url(#clip0_3_66)">
<path d="M7.34 7.54003C5.9 9.06003 4.78 10.78 3.98 12.7C3.18 14.62 2.78 16.62 2.78 18.7C2.78 20.78 3.18 22.78 3.98 24.7C4.78 26.62 5.9 28.34 7.34 29.86C7.58 30.1 7.7 30.36 7.7 30.64C7.7 30.92 7.58 31.18 7.34 31.42C7.1 31.66 6.84 31.78 6.56 31.78C6.28 31.78 6.02 31.66 5.78 31.42C4.1 29.74 2.8 27.8 1.88 25.6C0.96 23.4 0.5 21.1 0.5 18.7C0.5 16.3 0.96 14 1.88 11.8C2.8 9.60003 4.1 7.66003 5.78 5.98003C6.02 5.74003 6.28 5.62003 6.56 5.62003C6.84 5.62003 7.1 5.74003 7.34 5.98003C7.58 6.22003 7.7 6.48003 7.7 6.76003C7.7 7.04003 7.58 7.30003 7.34 7.54003ZM12.14 12.34C11.02 13.46 10.24 14.8 9.8 16.36C9.36 17.92 9.36 19.48 9.8 21.04C10.24 22.6 11.02 23.94 12.14 25.06C12.38 25.3 12.5 25.58 12.5 25.9C12.5 26.22 12.38 26.48 12.14 26.68C11.9 26.88 11.62 26.98 11.3 26.98C10.98 26.98 10.74 26.86 10.58 26.62C9.54 25.58 8.72 24.38 8.12 23.02C7.52 21.66 7.22 20.22 7.22 18.7C7.22 17.18 7.52 15.74 8.12 14.38C8.72 13.02 9.54 11.82 10.58 10.78C10.74 10.54 10.98 10.42 11.3 10.42C11.62 10.42 11.9 10.52 12.14 10.72C12.38 10.92 12.5 11.18 12.5 11.5C12.5 11.82 12.38 12.1 12.14 12.34ZM24.86 10.78C25.1 10.54 25.38 10.42 25.7 10.42C26.02 10.42 26.26 10.54 26.42 10.78C27.46 11.82 28.28 13.02 28.88 14.38C29.48 15.74 29.78 17.18 29.78 18.7C29.78 20.22 29.48 21.66 28.88 23.02C28.28 24.38 27.46 25.58 26.42 26.62C26.1 26.94 25.74 27.04 25.34 26.92C24.94 26.8 24.68 26.54 24.56 26.14C24.44 25.74 24.54 25.38 24.86 25.06C25.98 23.94 26.76 22.6 27.2 21.04C27.64 19.48 27.64 17.92 27.2 16.36C26.76 14.8 25.98 13.46 24.86 12.34C24.62 12.1 24.5 11.82 24.5 11.5C24.5 11.18 24.62 10.94 24.86 10.78ZM29.66 5.98003C29.9 5.74003 30.16 5.62003 30.44 5.62003C30.72 5.62003 30.98 5.74003 31.22 5.98003C33.54 8.30003 35.1 11 35.9 14.08C36.7 17.16 36.7 20.24 35.9 23.32C35.1 26.4 33.54 29.1 31.22 31.42C30.98 31.66 30.72 31.78 30.44 31.78C30.16 31.78 29.9 31.66 29.66 31.42C29.42 31.18 29.3 30.92 29.3 30.64C29.3 30.36 29.42 30.1 29.66 29.86C31.1 28.34 32.22 26.62 33.02 24.7C33.82 22.78 34.22 20.78 34.22 18.7C34.22 16.62 33.82 14.62 33.02 12.7C32.22 10.78 31.1 9.06003 29.66 7.54003C29.42 7.30003 29.3 7.04003 29.3 6.76003C29.3 6.48003 29.42 6.22003 29.66 5.98003ZM23.06 18.7C23.06 19.98 22.62 21.06 21.74 21.94C20.86 22.82 19.78 23.24 18.5 23.2C17.22 23.16 16.16 22.72 15.32 21.88C14.48 21.04 14.06 19.98 14.06 18.7C14.06 17.42 14.48 16.34 15.32 15.46C16.16 14.58 17.22 14.14 18.5 14.14C19.78 14.14 20.86 14.58 21.74 15.46C22.62 16.34 23.06 17.42 23.06 18.7Z" fill="#898989"/>
</g>
<defs>
<clipPath id="clip0_3_66">
<rect width="36" height="36" fill="white" transform="matrix(1 0 0 -1 0.5 36.7)"/>
</clipPath>
</defs>
</svg>
