<svg width="37" height="37" viewBox="0 0 37 37" fill="none" xmlns="http://www.w3.org/2000/svg">
<g clip-path="url(#clip0_3_44)">
<path d="M5.06 2.97998C4.42 2.97998 3.88 3.19999 3.44 3.63998C3 4.07999 2.78 4.59998 2.78 5.19999C2.78 5.79998 3 6.31998 3.44 6.75998C3.88 7.19999 4.4 7.41998 5 7.41998C5.6 7.41998 6.12 7.19999 6.56 6.75998C7 6.31998 7.22 5.79998 7.22 5.19999C7.22 4.59998 7 4.07999 6.56 3.63998C6.12 3.19999 5.62 2.97998 5.06 2.97998ZM0.499997 5.13998C0.499997 4.01999 0.879997 3.03999 1.64 2.19999C2.4 1.35999 3.34 0.859985 4.46 0.699986C5.58 0.539986 6.6 0.779984 7.52 1.41999C8.44 2.05999 9.06 2.93998 9.38 4.05999H27.62C27.94 3.01999 28.54 2.17999 29.42 1.53999C30.3 0.899986 31.28 0.619984 32.36 0.699986C33.44 0.779984 34.38 1.21999 35.18 2.01999C35.98 2.81998 36.42 3.75998 36.5 4.83998C36.58 5.91998 36.3 6.89998 35.66 7.77999C35.02 8.65998 34.18 9.25998 33.14 9.57998V27.82C34.18 28.14 35.02 28.74 35.66 29.62C36.3 30.5 36.58 31.48 36.5 32.56C36.42 33.64 35.98 34.58 35.18 35.38C34.38 36.18 33.44 36.62 32.36 36.7C31.28 36.78 30.3 36.5 29.42 35.86C28.54 35.22 27.94 34.38 27.62 33.34H9.38C9.06 34.38 8.46 35.22 7.58 35.86C6.7 36.5 5.72 36.78 4.64 36.7C3.56 36.62 2.62 36.18 1.82 35.38C1.02 34.58 0.579997 33.64 0.499997 32.56C0.419997 31.48 0.699997 30.5 1.34 29.62C1.98 28.74 2.82 28.14 3.86 27.82V9.57998C2.9 9.33998 2.1 8.79998 1.46 7.95998C0.819997 7.11999 0.499997 6.21998 0.499997 5.25998V5.13998ZM6.14 9.57998V27.82C6.94 28.06 7.62 28.46 8.18 29.02C8.74 29.58 9.14 30.26 9.38 31.06H27.62C27.86 30.26 28.26 29.58 28.82 29.02C29.38 28.46 30.06 28.06 30.86 27.82V9.57998C30.06 9.33998 29.38 8.93999 28.82 8.37998C28.26 7.81998 27.86 7.13998 27.62 6.33998H9.38C9.14 7.13998 8.74 7.81998 8.18 8.37998C7.62 8.93999 6.94 9.33998 6.14 9.57998ZM32.06 2.97998C31.42 2.97998 30.88 3.19999 30.44 3.63998C30 4.07999 29.78 4.59998 29.78 5.19999C29.78 5.79998 30 6.31998 30.44 6.75998C30.88 7.19999 31.4 7.41998 32 7.41998C32.6 7.41998 33.12 7.19999 33.56 6.75998C34 6.31998 34.22 5.79998 34.22 5.19999C34.22 4.59998 34 4.07999 33.56 3.63998C33.12 3.19999 32.62 2.97998 32.06 2.97998ZM5.06 29.98C4.42 29.98 3.88 30.2 3.44 30.64C3 31.08 2.78 31.6 2.78 32.2C2.78 32.8 3 33.32 3.44 33.76C3.88 34.2 4.4 34.42 5 34.42C5.6 34.42 6.12 34.2 6.56 33.76C7 33.32 7.22 32.8 7.22 32.2C7.22 31.6 7 31.08 6.56 30.64C6.12 30.2 5.62 29.98 5.06 29.98ZM32.06 29.98C31.42 29.98 30.88 30.2 30.44 30.64C30 31.08 29.78 31.6 29.78 32.2C29.78 32.8 30 33.32 30.44 33.76C30.88 34.2 31.4 34.42 32 34.42C32.6 34.42 33.12 34.2 33.56 33.76C34 33.32 34.22 32.8 34.22 32.2C34.22 31.6 34 31.08 33.56 30.64C33.12 30.2 32.62 29.98 32.06 29.98Z" fill="#898989"/>
</g>
<defs>
<clipPath id="clip0_3_44">
<rect width="36" height="36" fill="white" transform="matrix(1 0 0 -1 0.5 36.7)"/>
</clipPath>
</defs>
</svg>
