<svg width="37" height="37" viewBox="0 0 37 37" fill="none" xmlns="http://www.w3.org/2000/svg">
<g clip-path="url(#clip0_3_55)">
<path d="M8.42 0.700012C8.74 0.700012 9 0.800014 9.2 1.00001C9.4 1.20001 9.5 1.46001 9.5 1.78001V2.98001H27.5V1.78001C27.5 1.46001 27.6 1.20001 27.8 1.00001C28 0.800014 28.26 0.700012 28.58 0.700012C28.9 0.700012 29.18 0.800014 29.42 1.00001C29.66 1.20001 29.78 1.46001 29.78 1.78001V2.98001H32.06C33.26 2.98001 34.3 3.42001 35.18 4.30001C36.06 5.18001 36.5 6.22001 36.5 7.42001V32.14C36.5 33.42 36.06 34.5 35.18 35.38C34.3 36.26 33.22 36.7 31.94 36.7H5.06C3.78 36.7 2.7 36.26 1.82 35.38C0.94 34.5 0.5 33.46 0.5 32.26V7.42001C0.5 6.22001 0.94 5.18001 1.82 4.30001C2.7 3.42001 3.78 2.98001 5.06 2.98001H7.22V1.78001C7.22 1.46001 7.34 1.20001 7.58 1.00001C7.82 0.800014 8.1 0.700012 8.42 0.700012ZM5.06 5.14001C4.42 5.14001 3.88 5.36001 3.44 5.80001C3 6.24001 2.78 6.78001 2.78 7.42001V9.70001H34.22V7.42001C34.22 6.78001 34 6.24001 33.56 5.80001C33.12 5.36001 32.62 5.14001 32.06 5.14001H5.06ZM34.22 11.98H2.78V32.14C2.78 32.78 3 33.32 3.44 33.76C3.88 34.2 4.42 34.42 5.06 34.42H32.06C32.62 34.42 33.12 34.2 33.56 33.76C34 33.32 34.22 32.78 34.22 32.14V11.98ZM25.22 17.62C25.22 17.3 25.34 17.02 25.58 16.78C25.82 16.54 26.1 16.42 26.42 16.42H28.58C28.9 16.42 29.18 16.54 29.42 16.78C29.66 17.02 29.78 17.3 29.78 17.62V19.78C29.78 20.1 29.66 20.38 29.42 20.62C29.18 20.86 28.9 20.98 28.58 20.98H26.42C26.1 20.98 25.82 20.86 25.58 20.62C25.34 20.38 25.22 20.1 25.22 19.78V17.62ZM18.5 17.62C18.5 17.3 18.6 17.02 18.8 16.78C19 16.54 19.26 16.42 19.58 16.42H21.86C22.18 16.42 22.46 16.54 22.7 16.78C22.94 17.02 23.06 17.3 23.06 17.62V19.78C23.06 20.1 22.94 20.38 22.7 20.62C22.46 20.86 22.18 20.98 21.86 20.98H19.58C19.26 20.98 19 20.86 18.8 20.62C18.6 20.38 18.5 20.1 18.5 19.78V17.62ZM14.06 24.34C13.98 24.02 14.06 23.74 14.3 23.5C14.54 23.26 14.82 23.14 15.14 23.14H17.42C17.74 23.22 18 23.36 18.2 23.56C18.4 23.76 18.5 24.02 18.5 24.34V26.62C18.5 26.94 18.4 27.2 18.2 27.4C18 27.6 17.74 27.7 17.42 27.7H15.14C14.82 27.7 14.54 27.6 14.3 27.4C14.06 27.2 13.94 26.94 13.94 26.62L14.06 24.34ZM7.22 24.34C7.22 24.02 7.34 23.74 7.58 23.5C7.82 23.26 8.1 23.14 8.42 23.14H10.58C10.9 23.22 11.18 23.36 11.42 23.56C11.66 23.76 11.78 24.02 11.78 24.34V26.62C11.78 26.94 11.66 27.2 11.42 27.4C11.18 27.6 10.9 27.7 10.58 27.7H8.42C8.1 27.7 7.82 27.6 7.58 27.4C7.34 27.2 7.22 26.94 7.22 26.62V24.34Z" fill="#898989"/>
</g>
<defs>
<clipPath id="clip0_3_55">
<rect width="36" height="36" fill="white" transform="matrix(1 0 0 -1 0.5 36.7)"/>
</clipPath>
</defs>
</svg>
