<svg width="37" height="37" viewBox="0 0 37 37" fill="none" xmlns="http://www.w3.org/2000/svg">
<g clip-path="url(#clip0_3_917)">
<path d="M7.34 7.53991C5.9 9.05991 4.78 10.7799 3.98 12.6999C3.18 14.6199 2.78 16.6199 2.78 18.6999C2.78 20.7799 3.18 22.7799 3.98 24.6999C4.78 26.6199 5.9 28.3399 7.34 29.8599C7.58 30.0999 7.7 30.3599 7.7 30.6399C7.7 30.9199 7.58 31.1799 7.34 31.4199C7.1 31.6599 6.84 31.7799 6.56 31.7799C6.28 31.7799 6.02 31.6599 5.78 31.4199C4.1 29.7399 2.8 27.7999 1.88 25.5999C0.96 23.3999 0.5 21.0999 0.5 18.6999C0.5 16.2999 0.96 13.9999 1.88 11.7999C2.8 9.59991 4.1 7.65991 5.78 5.97991C6.02 5.73991 6.28 5.61991 6.56 5.61991C6.84 5.61991 7.1 5.73991 7.34 5.97991C7.58 6.21991 7.7 6.47991 7.7 6.75991C7.7 7.03991 7.58 7.29991 7.34 7.53991ZM12.14 12.3399C11.02 13.4599 10.24 14.7999 9.8 16.3599C9.36 17.9199 9.36 19.4799 9.8 21.0399C10.24 22.5999 11.02 23.9399 12.14 25.0599C12.38 25.2999 12.5 25.5799 12.5 25.8999C12.5 26.2199 12.38 26.4799 12.14 26.6799C11.9 26.8799 11.62 26.9799 11.3 26.9799C10.98 26.9799 10.74 26.8599 10.58 26.6199C9.54 25.5799 8.72 24.3799 8.12 23.0199C7.52 21.6599 7.22 20.2199 7.22 18.6999C7.22 17.1799 7.52 15.7399 8.12 14.3799C8.72 13.0199 9.54 11.8199 10.58 10.7799C10.74 10.5399 10.98 10.4199 11.3 10.4199C11.62 10.4199 11.9 10.5199 12.14 10.7199C12.38 10.9199 12.5 11.1799 12.5 11.4999C12.5 11.8199 12.38 12.0999 12.14 12.3399ZM24.86 10.7799C25.1 10.5399 25.38 10.4199 25.7 10.4199C26.02 10.4199 26.26 10.5399 26.42 10.7799C27.46 11.8199 28.28 13.0199 28.88 14.3799C29.48 15.7399 29.78 17.1799 29.78 18.6999C29.78 20.2199 29.48 21.6599 28.88 23.0199C28.28 24.3799 27.46 25.5799 26.42 26.6199C26.1 26.9399 25.74 27.0399 25.34 26.9199C24.94 26.7999 24.68 26.5399 24.56 26.1399C24.44 25.7399 24.54 25.3799 24.86 25.0599C25.98 23.9399 26.76 22.5999 27.2 21.0399C27.64 19.4799 27.64 17.9199 27.2 16.3599C26.76 14.7999 25.98 13.4599 24.86 12.3399C24.62 12.0999 24.5 11.8199 24.5 11.4999C24.5 11.1799 24.62 10.9399 24.86 10.7799ZM29.66 5.97991C29.9 5.73991 30.16 5.61991 30.44 5.61991C30.72 5.61991 30.98 5.73991 31.22 5.97991C33.54 8.29991 35.1 10.9999 35.9 14.0799C36.7 17.1599 36.7 20.2399 35.9 23.3199C35.1 26.3999 33.54 29.0999 31.22 31.4199C30.98 31.6599 30.72 31.7799 30.44 31.7799C30.16 31.7799 29.9 31.6599 29.66 31.4199C29.42 31.1799 29.3 30.9199 29.3 30.6399C29.3 30.3599 29.42 30.0999 29.66 29.8599C31.1 28.3399 32.22 26.6199 33.02 24.6999C33.82 22.7799 34.22 20.7799 34.22 18.6999C34.22 16.6199 33.82 14.6199 33.02 12.6999C32.22 10.7799 31.1 9.05991 29.66 7.53991C29.42 7.29991 29.3 7.03991 29.3 6.75991C29.3 6.47991 29.42 6.21991 29.66 5.97991ZM23.06 18.6999C23.06 19.9799 22.62 21.0599 21.74 21.9399C20.86 22.8199 19.78 23.2399 18.5 23.1999C17.22 23.1599 16.16 22.7199 15.32 21.8799C14.48 21.0399 14.06 19.9799 14.06 18.6999C14.06 17.4199 14.48 16.3399 15.32 15.4599C16.16 14.5799 17.22 14.1399 18.5 14.1399C19.78 14.1399 20.86 14.5799 21.74 15.4599C22.62 16.3399 23.06 17.4199 23.06 18.6999Z" fill="#898989"/>
</g>
<defs>
<clipPath id="clip0_3_917">
<rect width="36" height="36" fill="white" transform="matrix(1 0 0 -1 0.5 36.7)"/>
</clipPath>
</defs>
</svg>
