<svg width="20" height="21" viewBox="0 0 20 21" fill="none" xmlns="http://www.w3.org/2000/svg">
<g clip-path="url(#clip0_3_617)">
<path d="M15.2 11.49C14.6222 12.6456 13.8 13.9123 12.7333 15.29C11.8889 16.4011 10.9778 17.4678 10 18.49C9.02223 17.4678 8.11112 16.4011 7.26667 15.29C6.20001 13.9123 5.37779 12.6456 4.80001 11.49C4.0889 10.0678 3.73334 8.81226 3.73334 7.72337C3.73334 6.63448 4.01112 5.61226 4.56667 4.6567C5.12223 3.70115 5.8889 2.94559 6.86667 2.39004C7.84445 1.83448 8.8889 1.55671 10 1.55671C11.1111 1.55671 12.1556 1.83448 13.1333 2.39004C14.1111 2.94559 14.8778 3.70115 15.4333 4.6567C15.9889 5.61226 16.2667 6.63448 16.2667 7.72337C16.2667 8.81226 15.9111 10.0678 15.2 11.49ZM10 20.29C10.4 19.89 10.8 19.49 11.2 19.09C12.1333 18.1123 12.9778 17.1123 13.7333 16.09C14.8445 14.6234 15.7111 13.2678 16.3333 12.0234C17.1333 10.4234 17.5333 9.00115 17.5333 7.75671C17.5333 6.42337 17.1889 5.17893 16.5 4.02337C15.8111 2.86782 14.9 1.95671 13.7667 1.29004C12.6333 0.623371 11.3778 0.290037 10 0.290037C8.62223 0.290037 7.36667 0.623371 6.23334 1.29004C5.10001 1.95671 4.1889 2.86782 3.50001 4.02337C2.81112 5.17893 2.46667 6.42337 2.46667 7.75671C2.46667 9.00115 2.86667 10.4234 3.66667 12.0234C4.2889 13.2678 5.15556 14.6234 6.26667 16.09C7.02223 17.1123 7.86667 18.1123 8.80001 19.09L10 20.29ZM10 10.29C9.2889 10.29 8.70001 10.0456 8.23334 9.55671C7.76667 9.06782 7.53334 8.47893 7.53334 7.79004C7.53334 7.10115 7.76667 6.51226 8.23334 6.02337C8.70001 5.53448 9.2889 5.29004 10 5.29004C10.7111 5.29004 11.3111 5.53448 11.8 6.02337C12.2889 6.51226 12.5333 7.10115 12.5333 7.79004C12.5333 8.47893 12.2889 9.06782 11.8 9.55671C11.3111 10.0456 10.7111 10.29 10 10.29ZM10 11.5567C11.0222 11.5567 11.9 11.19 12.6333 10.4567C13.3667 9.72337 13.7333 8.83448 13.7333 7.79004C13.7333 6.74559 13.3667 5.8567 12.6333 5.12337C11.9 4.39004 11.0222 4.02337 10 4.02337C8.97779 4.02337 8.10001 4.39004 7.36667 5.12337C6.63334 5.8567 6.26667 6.74559 6.26667 7.79004C6.26667 8.83448 6.63334 9.72337 7.36667 10.4567C8.10001 11.19 8.97779 11.5567 10 11.5567Z" fill="#898989"/>
</g>
<defs>
<clipPath id="clip0_3_617">
<rect width="20" height="20" fill="white" transform="matrix(1 0 0 -1 0 20.29)"/>
</clipPath>
</defs>
</svg>
