<svg width="20" height="21" viewBox="0 0 20 21" fill="none" xmlns="http://www.w3.org/2000/svg">
<g clip-path="url(#clip0_3_628)">
<path d="M4.59999 1.95672C4.42221 1.7345 4.2111 1.62339 3.96665 1.62339C3.72221 1.62339 3.48887 1.71228 3.26665 1.89005L1.99998 3.15672C1.68887 3.46783 1.48887 3.82339 1.39998 4.22339C1.3111 4.62339 1.33332 5.00116 1.46665 5.35672C2.57776 8.51228 4.3111 11.2678 6.66665 13.6234C9.02221 15.9789 11.7778 17.7123 14.9333 18.8234C15.2889 18.9567 15.6667 18.9789 16.0667 18.8901C16.4667 18.8012 16.8222 18.6012 17.1333 18.2901L18.4 17.0234C18.5778 16.8012 18.6667 16.5678 18.6667 16.3234C18.6667 16.0789 18.5555 15.8901 18.3333 15.7567L15.4667 13.4901C15.2444 13.3123 15 13.2678 14.7333 13.3567L12 14.0234C11.6444 14.1123 11.2778 14.1012 10.9 13.9901C10.5222 13.8789 10.2 13.6901 9.93332 13.4234L6.86665 10.3567C6.59999 10.0901 6.4111 9.76783 6.29998 9.39005C6.18887 9.01228 6.17776 8.64561 6.26665 8.29005L6.93332 5.55672C7.02221 5.29005 6.97776 5.04561 6.79998 4.82339L4.59999 1.95672ZM2.33332 0.95672C2.82221 0.467833 3.38887 0.245609 4.03332 0.290054C4.67776 0.334499 5.19999 0.623388 5.59999 1.15672L7.86665 4.02339C8.08887 4.29005 8.23332 4.59005 8.29998 4.92339C8.36665 5.25672 8.35554 5.57894 8.26665 5.89005L7.59999 8.62339C7.5111 8.9345 7.57776 9.20117 7.79998 9.42339L10.8667 12.4901C11.0889 12.7123 11.3555 12.7789 11.6667 12.6901L14.4 12.0234C14.7111 11.9345 15.0333 11.9234 15.3667 11.9901C15.7 12.0567 16 12.2012 16.2667 12.4234L19.1333 14.6901C19.6667 15.0901 19.9555 15.6123 20 16.2567C20.0444 16.9012 19.8222 17.4678 19.3333 17.9567L18.0667 19.2234C17.5778 19.7123 17.0111 20.0345 16.3667 20.1901C15.7222 20.3456 15.0889 20.3123 14.4667 20.0901C11.1333 18.9345 8.2111 17.1012 5.69999 14.5901C3.18887 12.0789 1.35554 9.15672 0.199985 5.82339C-0.0222375 5.20116 -0.0555709 4.56783 0.0999847 3.92339C0.25554 3.27894 0.577762 2.71228 1.06665 2.22339L2.33332 0.95672Z" fill="#898989"/>
</g>
<defs>
<clipPath id="clip0_3_628">
<rect width="20" height="20" fill="white" transform="matrix(1 0 0 -1 0 20.29)"/>
</clipPath>
</defs>
</svg>
