<svg width="13" height="12" viewBox="0 0 13 12" fill="none" xmlns="http://www.w3.org/2000/svg">
<path d="M3.95998 1.23988C4.03998 1.15988 4.13331 1.11988 4.23998 1.11988C4.34665 1.11988 4.42665 1.15988 4.47998 1.23988L8.99998 5.71988C9.07998 5.79988 9.11998 5.89322 9.11998 5.99988C9.11998 6.10655 9.07998 6.19988 8.99998 6.27988L4.47998 10.7599C4.42665 10.8399 4.34665 10.8799 4.23998 10.8799C4.13331 10.8799 4.03998 10.8399 3.95998 10.7599C3.87998 10.6799 3.83998 10.5932 3.83998 10.4999C3.83998 10.4065 3.87998 10.3199 3.95998 10.2399L8.19998 5.99988L3.95998 1.75988C3.87998 1.67988 3.83998 1.59322 3.83998 1.49988C3.83998 1.40655 3.87998 1.31988 3.95998 1.23988Z" fill="#106EEA"/>
</svg>
