<svg width="20" height="21" viewBox="0 0 20 21" fill="none" xmlns="http://www.w3.org/2000/svg">
<g clip-path="url(#clip0_3_639)">
<path d="M0 5.29017C0 4.57906 0.244444 3.97906 0.733333 3.49017C1.22222 3.00128 1.82222 2.75683 2.53333 2.75683H17.5333C18.2 2.75683 18.7778 3.00128 19.2667 3.49017C19.7556 3.97906 20 4.57906 20 5.29017V15.2902C20 16.0013 19.7556 16.5902 19.2667 17.0568C18.7778 17.5235 18.1778 17.7568 17.4667 17.7568H2.53333C1.82222 17.7568 1.22222 17.5235 0.733333 17.0568C0.244444 16.5902 0 16.0013 0 15.2902V5.29017ZM2.53333 4.0235C2.17778 4.0235 1.87778 4.14572 1.63333 4.39017C1.38889 4.63461 1.26667 4.93461 1.26667 5.29017V5.55684L10 10.8235L18.7333 5.55684V5.29017C18.7333 4.93461 18.6111 4.63461 18.3667 4.39017C18.1222 4.14572 17.8444 4.0235 17.5333 4.0235H2.53333ZM18.7333 7.0235L12.8667 10.5568L18.7333 14.1568V7.0235ZM18.7333 15.6235L11.6667 11.2902L10 12.2902L8.33333 11.2902L1.26667 15.6235C1.35556 15.8902 1.51111 16.1124 1.73333 16.2902C1.95556 16.4679 2.22222 16.5568 2.53333 16.5568H17.5333C17.8 16.5568 18.0444 16.4679 18.2667 16.2902C18.4889 16.1124 18.6444 15.8902 18.7333 15.6235ZM1.26667 14.1568L7.13333 10.5568L1.26667 7.0235V14.1568Z" fill="#898989"/>
</g>
<defs>
<clipPath id="clip0_3_639">
<rect width="20" height="20" fill="white" transform="matrix(1 0 0 -1 0 20.29)"/>
</clipPath>
</defs>
</svg>
