<?xml version="1.0" encoding="UTF-8"?>
<svg version="1.1" viewBox="0 0 2048 1573" width="1280" height="1280" xmlns="http://www.w3.org/2000/svg">
<path transform="translate(904,45)" d="m0 0 5 1 7 6 10 13 91 91 8 7 30 30 13 12 7 8 9 8 3 1 7-6 6-8 102-102h2v-2l8-7 7-8h2l2-4 35-35 3-2 4 1 8 7 11 13 7 7 7 8 71 71 7 8 53 53v2l4 2 104 104 8 7 35 35 7 8 8 8 5 7-1 5-15 15-7 8-8 7-6 7-8 7-14 14-7 8-11 11-7 8-38 38-6 7-8 7-14 15-49 49-1 2h-2v2l-8 7-14 15-92 92-6 7-8 7-6 5-5-2-11-9-43-43-7-8-109-109-7-1-5 4-7 8-53 53-1 2h-2l-2 4h-2l-1 3-4 4h-2l-2 4-31 31-7 8-52 52-3 4-4-1-43-43-7-8-268-268-7-8-10-10-5-6 1-7 12-12h2l2-4 10-10 8-7 18-18 1-2h2l2-4 16-16 7-8 31-31 7-8 5-4 2-3h2l2-4 7-7 5-4 6-7 8-7 57-57 8-7 37-37 7-8 39-39 7-8 8-8 7-8 12-12zm358 87-14 11-15 14-42 42-7 8-25 25-7 8-11 12-8 8-4 5 2 5 25 25 7 8 33 33 8 7 45 45 1 4-8 8-8 7-54 54-7 8-12 12-6 5-7 8-17 17-2 3 1 5 15 15 7 8 81 81h2l2 4 15 14 9 8 4 1 4-3v-2h2l7-8v-2l4-2 19-19 7-8 15-15 7-6 7-8 131-131 8-7 36-36 8-7 4-4-1-4-17-16-13-13-7-8-75-75-7-8-94-94-8-7-35-35zm-358 2-10 9-8 7-17 17-7 8-12 12-4 5-5 5-5 4-5 6-12 12-2 1v2l-4 2-7 8-120 120-7 6-7 8-15 14-9 7-2 3 9 10 13 13 8 7 37 37 6 5 7 8 152 152 7 8 11 12 9 6 4-2 7-8 17-16 22-22 16-15 4-5 8-7 11-12 6-5 7-8 8-7 5-6 8-7 7-8 5-6-3-5-12-13-58-58-8-7-19-19-8-7-10-9-2-3 1-6 15-14 13-13 3-2v-2l3-1 7-8 68-68 8-7 1-1v-5l-5-4-2-3h-2l-2-4-9-9-7-8-96-96-6-7zm175 178-10 9-12 13-13 13-6 7-5 5-15 16-15 14 2 5 54 54h2l1 3 5 4 3 4h2l1 3 10 7 4-1 13-13 7-8 10-9 40-40 3-5-1-5-7-8-12-13-7-8-29-29-8-7-7-8-4-3z" fill="#797979"/>
<path transform="translate(904,45)" d="m0 0 5 1 7 6 10 13 91 91 8 7 30 30 13 12 7 8 6 5-1 4-9 10-7 7-8 7-13 10-8 6h-2l-7-8-8-8-7-8-96-96-5-6-6-1-10 9-8 7-16 16-7 8-12 12-2 3h-2l-1 3-10 10-4 2-1 3-12 12h-2v2l-76 76h-2l-2 4-51 51-6 5-7 8-16 15-9 7v3l7 8 13 13 8 7 37 37 4 3v2l3 1 7 8 152 152 7 8 10 11 9 6 3-1 7-8 7-7 8-7 20-20h2l2-4 7-7 8-7 6-7 8-7 11-12 5-4 7-8 7-7h2l2-4 10-9 7-8 5-1 15 14 11 11 9 11 4 5-1 4-7 8-53 53-1 2h-2l-2 4h-2l-1 3-4 4h-2l-2 4-31 31-7 8-52 52-3 4-4-1-43-43-7-8-268-268-7-8-10-10-5-6 1-7 12-12h2l2-4 10-10 8-7 18-18 1-2h2l2-4 16-16 7-8 31-31 7-8 5-4 2-3h2l2-4 7-7 5-4 6-7 8-7 57-57 8-7 37-37 7-8 39-39 7-8 8-8 7-8 12-12z" fill="#170A30"/>
<path transform="translate(1130,269)" d="m0 0 7 6 20 20 7 8 32 32 8 7 46 46 1 4-9 9-8 7-53 53-2 3h-2l-2 4-18 18h-2l-2 4-21 21-4-1-13-12-5-5v-2l-3-1-4-4v-2l-4-2-8-7-5-5 2-4 11-11 7-8 12-11 38-38 3-5-1-5-7-8-12-13-7-8-28-28-8-7-7-8-3-2 1-4 10-9 12-11 7-8 8-7 5-5z" fill="#170A30"/>
<path transform="translate(678,948)" d="m0 0 5 4 12 25 23 45 13 27 16 32 13 29v3l-2 1h-7l-8-4-7-11-13-24-4-4-2-1h-29l-37-1h-16l-9 14-12 21-6 8-6 3h-11l-11-3-8-4-8-9-8-13-12-21-6-11-6-7-2-1-12-1-50-1v60l-1 8h-10l-5-2-1-3-1-49v-97l3-5 2-2h51l33 1 20 2 10 3 8 6 6 8 4 8 2 7v13l-4 16-6 10-8 9-11 8 1 10 15 32 5 10 9 8 5-2 6-8 8-17 9-20 14-29 11-23 8-16 13-24 8-13zm-206 23-3 1-1 18v34l1 1 40 1h42l10-2 6-5 2-9v-22l-3-7-5-5-9-3-16-1-38-1zm203 12-9 11-16 35-7 19v3l9 2 14 1h38l8-1-7-16-15-33-7-13-7-8zm-82 123 1 2z" fill="#1A0E33"/>
<path transform="translate(672,1425)" d="m0 0h41l55 1 9 2 3 5 1 15v42l2 12 5 8 4 3 7 2h19l9-3 2-5 2-8 2-27 1-44 5-1 7 2 1 2 1 18-1 40-2 18-5 10-7 7-12 3h-29l-11-3-8-7-5-10-3-12-1-48-3-7-5-3-6-1h-18l-7 2-1 10-2 73-4 2h-8l-3-5-2-61-2-14-4-6-3-1h-22l-3 1-3 5-1 7-1 24-1 48-3 1-10-5-18-18-15-20-11-12-9-6-1 1-1 44-1 16-4 2h-8l-3-4v-87l1-5 2-1h6l8 6 11 11 20 26 9 11 11 12 2 1v-14l3-46 1-7 1-1z" fill="#797979"/>
<path transform="translate(1671,953)" d="m0 0h43l31 2 20 4 13 5 11 7 11 10 9 14 8 17 3 11v19l-3 16-5 12-7 11-12 13-14 9-15 6-13 2-33 2h-39l-9-2-2-6-1-11-1-32v-24l1-52 1-30zm25 19-9 2-1 1-1 20v91l1 9 1 1 8 1h22l24-1 15-2 13-4 12-9 9-11 5-10 3-15v-24l-4-16-7-11-8-8-11-7-14-4-14-2-15-1z" fill="#1A0D32"/>
<path transform="translate(1012,950)" d="m0 0h19l21 3 15 5 16 8 9 8 4 10 1 6-3 1-25-10-21-8-15-3-9-1h-11l-10 2-14 7-5 5-3 6-1 5v8l2 4 14 7 17 3 42 4 17 3 13 5 11 8 7 11 4 9 1 9-2 12-6 11-9 10-7 7-13 8-9 3-6 1h-30l-19-3-20-6-12-5-10-6-5-5-2-4v-10l7 1 29 13 17 4 23 3h16l10-2 12-6 7-7 4-10 1-9-4-13-4-5-8-4-12-3-47-6-17-4-12-5-11-6-6-7-3-7v-8l3-12 4-8 9-10 8-7 8-5 12-4z" fill="#190D32"/>
<path transform="translate(700,1227)" d="m0 0h28l17 3 6 3 5 8 3 14-2 4-6 1-6-9-9-8-11-4-7-1h-9l-9 3-5 4-3 8v7l9 4 26 5 16 5 10 1 6 4 7 10 5 7 16 8 17 9 10 5 6 1h13l9-3 7-5 3-9-1-9-4-6-8-4-36-5-13-4-6-2-4-9-2-6v-6l5-8 6-9 6-4 10-3h22l20 4 9 4 8 10 2 10-6-1-19-10-11-4-7-1h-14l-8 3-4 4-1 3v8l4 6 5 3 14 3 21 1 15 5 10 5 5 10v14l-4 9-5 5-7 6-12 6-8 2-15 1-14-2-14-7-9-7-8-9-5-8h-1l-2 9-9 10-11 8-9 4-10 2h-18l-11-3-10-6-11-10-4-9 1-6 6 1 15 9 14 8 6 2h16l9-5 5-6 3-9-1-8-7-6-12-3-32-5-15-4-3-4-2-6v-12l8-16 7-5z" fill="#7B7B7B"/>
<path transform="translate(905,953)" d="m0 0h12l4 4v143l-1 9-2 4-4-1-9-8-7-8-7-7-7-8-9-10-7-8-11-12-9-11-24-28-5-5v-2l-3-1-7-8-2-1v86l-1 29-2 4h-9l-3-2-1-4-1-28v-114l1-12 5 1 7 7 8 7 12 13 11 13 7 8 9 10 10 11 9 11 9 10 9 11 9 10 6 5 1-111z" fill="#190D32"/>
<path transform="translate(1607,952)" d="m0 0h7l5 2v151l-3 5-6-1-10-9-7-8-14-15-7-8-15-16-9-11-9-10-9-11-9-10-9-11-7-8-1 73-1 31-1 14-3 2h-9l-2-2-1-4v-105l1-47 5-1 8 7 10 10 9 11 11 13 12 14 13 14 8 10 10 11 7 8 9 10 8 8 2 1 1-101 2-15z" fill="#1A0E33"/>
<path transform="translate(1344,952)" d="m0 0h24l80 1 2 3v10l-3 7h-105v48l60 2 6 3v8l-3 2h-59l-4-1 1 56 1 4 106 1 5 5v8l-4 4h-123l-3-6-1-35v-116l1-3z" fill="#1A0E33"/>
<path transform="translate(1201,950)" d="m0 0h23l12 2 13 5 12 7 11 10 8 14 1 7-3 7-5-2-14-12-13-9-14-6-10-2h-21l-13 3-14 7-8 8-9 14-4 15-1 6v26l5 16 9 14 4 4v2l4 2 12 7 15 4h22l15-4 14-9 9-8 8-11 3-3h8l5 3 1 2v7l-6 9-10 10-11 9-13 8-12 4-14 2h-19l-17-3-14-7-10-8-11-11-7-11-5-10-5-15-1-6v-27l5-17 9-17 8-10 7-8 15-10 10-5z" fill="#1A0D33"/>
<path transform="translate(399,953)" d="m0 0h37l3 1 2 5v10l-1 3-2 1h-65l-1 26-1 113-1 1h-13l-3-1-1-4-1-21v-114h-43l-22-1-2-2v-10l2-3 7-2 32-1z" fill="#1B0F34"/>
<path transform="translate(93,1229)" d="m0 0h53l22 2 5 3 4 10 4 15 5 33v15l-4 8-7 6-12 5-14 3-10 1h-17l-20-2-8-3-3-4-1-4v-49l1-35zm22 10-5 3-3 5-1 4v21h14l32-2 12-2-2-16-4-9-3-2-16-2zm28 41-34 2-4 4v17l3 9 5 4 5 2 6 1h20l13-3 8-6 3-6 1-9-2-12-3-3z" fill="#7B7B7B"/>
<path transform="translate(541,1229)" d="m0 0 8 1 2 7v81l-3 7-4 1-6-4-7-7-7-8-13-13-7-10-8-11-9-6-3-1-1 12v24l1 10v11l-4 5h-10l-5-5-1-6v-41l2-44 12 1 7 2 22 28 14 19 11 12 3 3v-11l2-48 1-7z" fill="#7B7B7B"/>
<path transform="translate(1830,1229)" d="m0 0 7 2 1 2 1 51v34l-4 3-9-2-11-8-9-9-10-13-8-11-8-9-6-5-2 9-1 8-1 20-2 14-5 10-4 3h-13l-3-3 1-4 5 2 3 2-1-8 1-7 2-75 3-3 9 1 10 6 11 14 14 20 9 12 8 7 6 5 1-48 1-16 1-3z" fill="#7A7A7A"/>
<path transform="translate(890,1425)" d="m0 0h41l14 2 5 3 4 5 4 13v10l-4 9-8 14-1 3v10l5 12 6 11 2 4-5 1-8-3-9-12-8-12-5-4-11-5-11-2-17-1v16l1 19-3 5h-5l-4-5-1-2-2-34 1-38 2-10 3-6 5-2zm8 9-9 3-3 4-2 11v11l3 5 14 3 11 1h16l8-4 4-5 2-6v-14l-3-4-12-3-18-2z" fill="#7A7A7A"/>
<path transform="translate(344,1227)" d="m0 0h13l19 3 8 4 6 7 3 8 1 9-2 1-11-9-7-6-12-4-6-1h-16l-9 3-5 5-1 2v10l5 5 7 3 11 2 30 1 15 2 4 5 4 15 1 10-3 9-9 10-9 6-9 4-7 1h-21l-10-2-14-7-6-5-4-7-3-10-2-10 5 5 7 8 10 7 13 6 9 2h17l10-4 6-7 2-5v-13l-3-5-1-1-7-1-22-1-20-4-17-5-3-3-1-3v-17l6-12 5-5 4-3 8-2z" fill="#7A7A7A"/>
<path transform="translate(1253,1230)" d="m0 0 9 1 3 3 1 4v17l-1 22v28l1 13-2 5-3 1-10-5-21-21-11-14-9-11-12-8-1 53-5 6-3 1-4-4-3-9v-33l-2-44 1-3h7l9 3 8 10 5 5 11 12 9 12 9 10 9 9 1 2 2-34 1-30z" fill="#7A7A7A"/>
<path transform="translate(1103,1227)" d="m0 0h14l15 3 14 7 8 8 4 9 2 9v28l-2 10-5 10-6 7-10 7-12 5-12 2h-12l-9-2-11-7-9-9-5-9-5-12-2-9v-11l3-14 4-9 6-8 9-8 7-4zm0 11-11 4-9 7-5 9-3 8-1 6v12l2 9 6 11 10 9 8 5 3 1h16l12-5 8-7 5-10 3-14v-14l-4-13-9-10-14-7-4-1z" fill="#7A7A7A"/>
<path transform="translate(1487,1425)" d="m0 0h35l50 1 8 2v4l-5 4-27 1-5 2-1 3-1 28-1 47-2 5-7 1-3-2-2-7v-68l-2-7-5-2-18-2h-7l-7 2-4 5-1 6-1 56-1 17h-11l-3-3-1-2-1-24v-53l2-9 3-3 3-1z" fill="#7B7B7B"/>
<path transform="translate(1312,1228)" d="m0 0h27l14 2 9 4 6 7 4 10v7l-5-2-17-12-12-4-6-1h-15l-7 3-6 6v13l6 5 10 3 7 1h21l14 4 5 1h5l3 5 3 14v10l-3 8-7 8-10 7-11 4-10 1h-10l-14-2-9-4-9-6-7-9-2-7v-6l11 7 10 6 13 6 11 2h8l9-2 8-4 5-6 2-5v-13l-4-4-7-2-22-1-16-2-21-6-4-5-1-4v-15l5-12 5-5 5-3z" fill="#7B7B7B"/>
<path transform="translate(1684,1230)" d="m0 0 10 1 6 3 6 8 13 27 11 27 6 15 5 10 1 6-1 2-5-1-9-6-9-12-5-5-3-6-4-17-4-13-7-11-2-2-5 1-7 14-2 8-1 10 14 1 14-1 3 9v4l-17 2-12-1-9-1-6 5-8 12-8 8-9 1 1-6 8-23 12-22 6-12 9-15 3-7v-7l3-5z" fill="#7A7A7A"/>
<path transform="translate(596,1229)" d="m0 0h48l5 2 3 3 1 9-1 2-8-1-12-3-10-1h-20l-6 3-3 9v25l6-5 20-5h7l3 6-1 5-2 3-3 1h-8l-6-2-13 3h-4l-1 7v11l3 10 4 5 5 2h26l12-3 10-5 5 5 1 7-3 5-5 2-11 1-41 1-12-2-5-3-3-5-2-8-1-16v-28l1-23 2-14 2-2z" fill="#7B7B7B"/>
<path transform="translate(1364,1425)" d="m0 0h49l17 2 6 3 5 8 4 13v11l-5 8-5 5-5 4-10 3-7 1-17 1h-24l-2 12-1 16-2 6-6 4h-6v-62l1-29 2-4zm15 10-6 4-3 9v9l2 9 3 3 8 2h31l9-3 4-4 1-7-2-9-4-6-5-4-14-3z" fill="#7A7A7A"/>
<path transform="translate(1400,1231)" d="m0 0h12l1 1v18l-1 40 1 11 4 9 4 6 7 3h16l10-4 7-6 2-6 1-8v-64h14l3 2 1 15v47l-2 15-6 9-10 8-9 4-14 2h-9l-12-2-9-6-7-8-5-11-1-5v-43l1-23z" fill="#7B7B7B"/>
<path transform="translate(275,1230)" d="m0 0 9 2 5 4 1 2 1 28v25l-3 18-5 9-7 7-10 5-8 2h-22l-12-5-8-6-5-7-3-9-2-16v-41l2-15 2-2h14v8l-1 7v43l2 13 5 10 7 6 9 2h7l10-3 4-2 2-4 4-11 1-9v-60z" fill="#7C7C7C"/>
<path transform="translate(1613,1426)" d="m0 0 7 3 8 9 10 19 11 23 14 32 6 11-1 1h-8l-8-4-9-17-6-7-3 1-13 1h-11l-9-1h-10l-4 4-7 13-6 7-3 1h-7l-1-4 6-10 13-32 8-17 10-16 6-14zm-2 25-6 8-5 16v7l14 7 7-1h8l5 2-3-12-5-12-7-10z" fill="#7A7A7A"/>
<path transform="translate(1911,1226)" d="m0 0 14 1 15 5 8 6 5 8 1 2v10h-5l-19-13-11-5-10-1-10 2-10 6-6 9-4 9-1 5v18l4 11 7 8 8 7 9 4h13l10-4 11-8 7-6 5-5 5-3h2v7l-3 8-6 9-8 6-16 8-8 2h-15l-11-4-13-9-8-10-6-12-3-13v-19l4-12 8-11 9-9 8-4 8-2z" fill="#7B7B7B"/>
<path transform="translate(1290,1427)" d="m0 0 7 1 6 7 10 17 9 17 8 21 6 15 6 9 10 7v1h-14l-10-7-7-8-7-9-3-3-4-14-3-14-6-9-6-4-4 2-6 10-4 19h27l2 1 2 6-1 2-16 3h-22l-10 15-7 8-4 3h-8l9-19 8-19 5-13 12-24 9-16 3-4z" fill="#7A7A7A"/>
<path transform="translate(992,1425)" d="m0 0h50l12 1 4 2-1 8-1 1-23-1h-29l-6 2-2 5v14l2 10 11-1 9-1h14l2 2v8l-3 3-2 1h-27l-7 3-1 4v10l3 12 3 4 3 1 20 1 32-2 3 2 1 6-4 3-17 2-24 1h-18l-10-2-4-5-1-4-1-14v-38l2-35 2-2z" fill="#7B7B7B"/>
<path transform="translate(986,1227)" d="m0 0h18l18 4 8 4 6 9 6 14 3 8-4-2-11-10-16-11-10-3-12-1-9 2-8 4-6 5-6 10-3 9v15l2 10 6 10 9 8 9 5 4 1h13l12-5 11-9 7-8 7-7 2 1 1 9-6 12-8 9-11 7-12 5-6 1h-11l-11-3-11-7-8-8-7-11-4-9-2-10v-17l4-13 7-11 9-9 9-5z" fill="#7A7A7A"/>
<path transform="translate(486,1426)" d="m0 0h47l21 1 6 2v6l-3 3h-10l-6-1-18-1h-15l-6 2-2 7v9l2 14 21-3h12l2 2v7l-5 5-30 1-3 3-2 7v10l3 9 5 3 4 1h24l14-2 8-2 5 1 3 4 1 7-5 2-19 2h-38l-11-2-5-6-2-13v-42l1-31z" fill="#797979"/>
<path transform="translate(1182,1424)" d="m0 0h12l16 3 9 5 8 9 6 13 1 6-4-2-13-11-11-7-10-4-11-1-9 2-11 6-8 8-5 11-1 4v19l5 13 7 8 9 6 7 2h18l10-4 10-9 7-8 7-7h1v9l-3 11-9 10-9 8-9 3-9 1h-10l-12-2-11-6-12-12-6-10-5-13-1-7v-12l4-13 6-10 6-7 11-8 10-3z" fill="#7A7A7A"/>
<path transform="translate(1555,429)" d="m0 0 4 1-1 5-17 17-7 8-11 11-7 8-38 38-6 7-8 7-14 15-49 49-1 2h-2v2l-8 7-14 15-92 92-6 7-8 7-6 5-5-2-11-9-2-2v-4l7 1 5 3 8-1 5-5 4-5 6-4 7-8 8-7 3-3h2l2-4 7-7h2v-2h2v-2h2l1-3h2l2-4 8-7 8-8h2l1-3 8-7 12-12h2l2-4 3-3h2v-2l5-4 10-10 6-7 10-8 4-6 5-2v-2h2l2-4h2l2-4 8-8 2-5 13-16 4-5 3-3h3l2-4 10-8 1-2 7-4 8-11h2l2-4 7-8 4-5h2v-2h2v-2l8-5 8-4h2v-4l7-4 1-3h2l1-4h3l1-4 7-8h2l1-5 10-10z" fill="#6A6C6D"/>
<path transform="translate(1276,66)" d="m0 0 6 1 9 9 7 8 71 71 7 8 53 53v2l4 2 104 104 8 7 35 35 7 8 8 8 5 7-1 5-3 3-4 1v-2h-2l-2-9-6-8-5-5-7-8v-2l-4-2-4-5v-2l-4-2-8-7-5-6-8-7-10-10-6-5v-2l-4-2-25-25-7-8-33-33-7-8-13-13-7-6-7-8-16-16-5-4-64-64v-2l-4-2-4-4v-2l-3-1-4-4v-2l-3-1-5-6-10-10v-2l-4-2-7-8-2-4-3-1-8-10z" fill="#6A6C6D"/>
<path transform="translate(1503,1231)" d="m0 0h13l4 2v65l2 10 4 7 6 2h14l29-3h6l-1 10-5 5-2 1-19 1h-37l-6-2-5-5-3-8-1-6-1-27v-19l1-32z" fill="#7B7B7B"/>
<path transform="translate(1561,1230)" d="m0 0h58l36 1 5 2 1 6-7 2-32 2-2 4-1 13-2 61-3 7-2 1h-6l-3-5-1-75-5-5-3-1-31-3-3-2v-7z" fill="#7B7B7B"/>
<path transform="translate(369,1426)" d="m0 0 7 1 6 5 26 52 4 7v2l4 2 1 2 7-9 18-37 9-19 4-4 11-1-3 11-11 26-10 19-10 18-8 11-5 6-5-1-9-10-8-14-7-14-8-18-11-27-2-5z" fill="#7A7A7A"/>
<path transform="translate(1956,1227)" d="m0 0h8l9 4 11 8 14 17 7 9v2h2l2-4 9-10 7-8 13-13 7-4h3v15l-11 8-8 9-10 14-4 7-1 5-2 30-3 9-3 4-4-2-4-6 1-9 1-10-3-16-4-9-7-12-13-16-7-8-12-12z" fill="#7A7A7A"/>
<path transform="translate(1680,1428)" d="m0 0h9l4 4v68l2 12 6 1h20l17-2h9l7 6-1 6-3 2h-63l-7-2-3-5 1-58 1-28z" fill="#7A7A7A"/>
<path transform="translate(423,1230)" d="m0 0 15 1 1 2v90l-3 4-8 1-5-3-1-3v-91z" fill="#7B7B7B"/>
<path transform="translate(1036,427)" d="m0 0 5 2 18 18 8 7 6 7 10 7 5 3 9 9 6 4 5 6 15 15 8 6-1 7 16 16 7 8v2l-7-1-5-4-5-7-9-4-7-6v-3l-4-2-3-5-6-5v-2l-5-2-3-5-7-3-1-3-5-2 1-3-4-2-2-9-4-2v-2l-4-1-4-3v-2l-4-2-6-5-3-5-9-7v-2h-2l-5-8-3-6z" fill="#696B6C"/>
<path transform="translate(1182,1424)" d="m0 0h12l16 3 9 5 8 9 6 13 1 6-4-2-13-11-11-7-10-4-11-1-9 2-11 6-8 8-7 14-2 1-9-4v-7l6-11 7-8 11-8 10-3z" fill="#797979"/>
<path transform="translate(1238,149)" d="m0 0 1 3-47 47-7 8-25 25-7 8-4 5-7 1-2-4 3-7 11-11h2l2-4 8-7h2l2-4 3-3h2l1-3 16-14 5-6 8-7 12-12 4-3h2l1-3 8-6h3v-2z" fill="#6A6C6D"/>
<path transform="translate(1024,492)" d="m0 0 5 1v2l5 5v3l5 1v2l4 1v2h2l3 5 5 3v2h2l1 4 4 1 3 5 3 3 6 8 6 6v2l4 2 5 5 5 4 1 3-4-1-7-1-4 3-4-7-9-10-7-8-13-13-6-5-3-2 3-5-9-11-7-7z" fill="#696B6C"/>
<path transform="translate(1122,264)" d="m0 0 6 1v2l3 1-2 3h-2l-2 4-7 7-7 6-6 7-8 7-7 7-5 4v-2h-4v-2h-2l1-5 10-11 5-5 8-6h2l2-4h2l1-3 8-7z" fill="#696B6C"/>
<path transform="translate(1062,325)" d="m0 0h2l-1 4-14 14h-2l-2 4-7 8-5 5-14 15-5 5h-4l-1-5h3l2-5 6-9h2l1-4h2l2-4 6-5 5-5 5-4 6-7h2v-2l6-4z" fill="#6A6C6D"/>
<path transform="translate(1081,219)" d="m0 0 5 3-1 4-8 8-7 5-1 2h-2l-3 9-4 4h-2l-1 4-3 1-2 4-8 6h-4v-3l-4-2-2-2 15-12 9-7 15-14 7-8z" fill="#696B6C"/>
<path transform="translate(460,1427)" d="m0 0h6l-3 11-11 26h-1l-1-5-1-2-5-1-2-1-2 4-1-2 10-21 4-6 2-2z" fill="#7A7A7A"/>
<path transform="translate(1456,320)" d="m0 0 6 2 4 3v2h3v3l4 2 3 3v2h2v2l5 2v2l5 2 8 9 2 1v2h2v2l5 2 4 5v3l4 2 2 4v4l-4-1-19-19-7-8-29-29z" fill="#6A6C6D"/>
<path transform="translate(1217,1432)" d="m0 0 4 2 6 7 6 13 1 6-4-2-13-11-5-5 1-5 2-4z" fill="#6C6E6E"/>
<path transform="translate(1034,1426)" d="m0 0h20l4 2-1 8-1 1h-9l-1-1-11-1-4-4v-4z" fill="#6A6C6D"/>
<path transform="translate(1053,1512)" d="m0 0 5 2 1 6-4 3-5 1h-19l1-4 7-5 12-2z" fill="#6B6D6E"/>
<path transform="translate(442,1455)" d="m0 0h4v2l5 1v7l-5 9h-7l-4-3v-6l3-6z" fill="#6A6B6C"/>
<path transform="translate(1332,119)" d="m0 0 7 6 30 30 7 8 22 22h-3l-24-24-6-5v-2l-4-2-26-26-3-4z" fill="#7A7A7A"/>
<path transform="translate(728,1427)" d="m0 0h23l3 2-3 5h-20l-3-3z" fill="#696B6C"/>
<path transform="translate(1273,135)" d="m0 0 4 1v2l4 1 4 5 5 5 5 6 2 5-4-1-20-20z" fill="#6B6D6E"/>
<path transform="translate(1141,1456)" d="m0 0 11 2-1 5-3 3-9-4 1-5z" fill="#696B6C"/>
<path transform="translate(813,1330)" d="m0 0h21v2l-15 1-6-2z" fill="#6C6E6F"/>
<path transform="translate(1036,1255)" d="m0 0 4 1 3 5 2 5-4-2-5-5z" fill="#646469"/>
<path transform="translate(1133,175)" d="m0 0h4v2l-6 5-2 3-3-1 4-6z" fill="#6B6D6E"/>
<path transform="translate(1258,50)" d="m0 0m-1 1m-1 1m-1 1m-1 1m-1 1m-1 1m-1 1m-1 1m-1 1m-1 1m-1 1m-1 1m-1 1m-1 1m-1 1m-1 1 2 1v2l-7 4 2-4z" fill="#757575"/>
<path transform="translate(1323,590)" d="m0 0m-1 1m-1 1m-1 1m-1 1m-1 1m-1 1m-1 1m-1 1m-1 1m-1 1m-1 1 2 1v2l-4 4h-3l2-4z" fill="#737474"/>
<path transform="translate(1567,1515)" d="m0 0 2 2v4h-6l1-5z" fill="#6A6C6D"/>
<path transform="translate(1151,1437)" d="m0 0 4 1-4 5-4 2 1-4z" fill="#6B6D6E"/>
<path transform="translate(1262,49)" d="m0 0 5 1 4 4-1 2-2-2-7-2z" fill="#6C6E6F"/>
<path transform="translate(754,1263)" d="m0 0 2 1v6l-3-2z" fill="#C8C8C8"/>
</svg>
