<svg width="25" height="25" viewBox="0 0 25 25" fill="none" xmlns="http://www.w3.org/2000/svg">
<g clip-path="url(#clip0_3_94)">
<path d="M9.54 5.30999C9.54 4.66999 9.75333 4.12333 10.18 3.66999C10.6067 3.21666 11.14 3.01666 11.78 3.06999H13.22C13.86 3.01666 14.4067 3.21666 14.86 3.66999C15.3133 4.12333 15.5133 4.66999 15.46 5.30999V6.74999C15.46 7.38999 15.2467 7.92333 14.82 8.34999C14.3933 8.77666 13.86 8.98999 13.22 8.98999V10.51H21.54C21.7 10.51 21.86 10.59 22.02 10.75C22.18 10.91 22.26 11.0967 22.26 11.31V12.75C22.26 12.9633 22.18 13.15 22.02 13.31C21.86 13.47 21.6867 13.55 21.5 13.55C21.3133 13.55 21.14 13.47 20.98 13.31C20.82 13.15 20.74 12.9633 20.74 12.75V12.03H13.22V12.75C13.22 12.9633 13.1533 13.15 13.02 13.31C12.8867 13.47 12.7133 13.55 12.5 13.55C12.2867 13.55 12.1133 13.47 11.98 13.31C11.8467 13.15 11.78 12.9633 11.78 12.75V12.03H4.26V12.75C4.26 12.9633 4.18 13.15 4.02 13.31C3.86 13.47 3.68667 13.55 3.5 13.55C3.31333 13.55 3.14 13.47 2.98 13.31C2.82 13.15 2.74 12.9633 2.74 12.75V11.31C2.74 11.0967 2.82 10.91 2.98 10.75C3.14 10.59 3.32667 10.51 3.54 10.51H11.78V8.98999C11.14 9.04333 10.6067 8.84332 10.18 8.38999C9.75333 7.93666 9.54 7.38999 9.54 6.74999V5.30999ZM13.22 7.54999C13.4333 7.54999 13.62 7.46999 13.78 7.30999C13.94 7.14999 14.02 6.96333 14.02 6.74999V5.30999C14.02 5.09666 13.94 4.90999 13.78 4.74999C13.62 4.58999 13.4333 4.50999 13.22 4.50999H11.78C11.5667 4.50999 11.38 4.58999 11.22 4.74999C11.06 4.90999 10.98 5.09666 10.98 5.30999V6.74999C10.98 6.96333 11.06 7.14999 11.22 7.30999C11.38 7.46999 11.5667 7.54999 11.78 7.54999H13.22ZM0.5 17.31C0.5 16.67 0.713333 16.1367 1.14 15.71C1.56667 15.2833 2.1 15.07 2.74 15.07H4.26C4.9 15.0167 5.43333 15.2167 5.86 15.67C6.28667 16.1233 6.5 16.67 6.5 17.31V18.75C6.5 19.39 6.28667 19.9233 5.86 20.35C5.43333 20.7767 4.9 20.99 4.26 20.99H2.74C2.1 20.99 1.56667 20.7767 1.14 20.35C0.713333 19.9233 0.5 19.39 0.5 18.75V17.31ZM2.74 16.51C2.52667 16.51 2.35333 16.59 2.22 16.75C2.08667 16.91 2.02 17.0967 2.02 17.31V18.75C2.02 18.9633 2.08667 19.15 2.22 19.31C2.35333 19.47 2.52667 19.55 2.74 19.55H4.26C4.47333 19.55 4.64667 19.47 4.78 19.31C4.91333 19.15 4.98 18.9633 4.98 18.75V17.31C4.98 17.0967 4.91333 16.91 4.78 16.75C4.64667 16.59 4.47333 16.51 4.26 16.51H2.74ZM9.54 17.31C9.54 16.67 9.75333 16.1367 10.18 15.71C10.6067 15.2833 11.14 15.07 11.78 15.07H13.22C13.86 15.0167 14.4067 15.2167 14.86 15.67C15.3133 16.1233 15.5133 16.67 15.46 17.31V18.75C15.46 19.39 15.2467 19.9233 14.82 20.35C14.3933 20.7767 13.86 20.99 13.22 20.99H11.78C11.14 21.0433 10.6067 20.8433 10.18 20.39C9.75333 19.9367 9.54 19.39 9.54 18.75V17.31ZM11.78 16.51C11.5667 16.51 11.38 16.59 11.22 16.75C11.06 16.91 10.98 17.0967 10.98 17.31V18.75C10.98 18.9633 11.06 19.15 11.22 19.31C11.38 19.47 11.5667 19.55 11.78 19.55H13.22C13.4333 19.55 13.62 19.47 13.78 19.31C13.94 19.15 14.02 18.9633 14.02 18.75V17.31C14.02 17.0967 13.94 16.91 13.78 16.75C13.62 16.59 13.4333 16.51 13.22 16.51H11.78ZM18.5 17.31C18.5 16.67 18.7133 16.1233 19.14 15.67C19.5667 15.2167 20.1 15.0167 20.74 15.07H22.26C22.9 15.0167 23.4333 15.2167 23.86 15.67C24.2867 16.1233 24.5 16.67 24.5 17.31V18.75C24.5 19.39 24.2867 19.9233 23.86 20.35C23.4333 20.7767 22.9 20.99 22.26 20.99H20.74C20.1 21.0433 19.5667 20.8433 19.14 20.39C18.7133 19.9367 18.5 19.39 18.5 18.75V17.31ZM20.74 16.51C20.5267 16.51 20.3533 16.59 20.22 16.75C20.0867 16.91 20.02 17.0967 20.02 17.31V18.75C20.02 18.9633 20.0867 19.15 20.22 19.31C20.3533 19.47 20.5267 19.55 20.74 19.55H22.26C22.4733 19.55 22.6467 19.47 22.78 19.31C22.9133 19.15 22.98 18.9633 22.98 18.75V17.31C22.98 17.0967 22.9133 16.91 22.78 16.75C22.6467 16.59 22.4733 16.51 22.26 16.51H20.74Z" fill="black"/>
</g>
<defs>
<clipPath id="clip0_3_94">
<rect width="24" height="24" fill="white" transform="matrix(1 0 0 -1 0.5 24.03)"/>
</clipPath>
</defs>
</svg>
