<svg width="65" height="65" viewBox="0 0 65 65" fill="none" xmlns="http://www.w3.org/2000/svg">
<rect x="0.48999" y="0.800049" width="64" height="64" rx="4" fill="black"/>
<g clip-path="url(#clip0_3_243)">
<path d="M29.0367 21.1533C29.1611 21.2155 29.3011 21.2933 29.4567 21.3867C29.6122 21.48 29.7211 21.62 29.7833 21.8067L36.0367 38.7933L38.65 31.42C38.7122 31.2333 38.8211 31.0933 38.9767 31C39.1322 30.9067 39.3033 30.86 39.49 30.86H45.65C45.8989 30.86 46.1011 30.9378 46.2567 31.0933C46.4122 31.2489 46.49 31.4511 46.49 31.7C46.49 31.9489 46.4122 32.1511 46.2567 32.3067C46.1011 32.4622 45.8989 32.54 45.65 32.54H40.1433L36.7833 41.5933C36.7211 41.78 36.6122 41.92 36.4567 42.0133C36.3011 42.1067 36.1455 42.1533 35.99 42.1533C35.8344 42.1533 35.6789 42.1067 35.5233 42.0133C35.3678 41.92 35.2589 41.78 35.1967 41.5933L29.0367 24.6067L26.33 31.98C26.2678 32.1667 26.1589 32.3067 26.0033 32.4C25.8478 32.4933 25.6767 32.54 25.49 32.54H19.33C19.0811 32.54 18.8789 32.4622 18.7233 32.3067C18.5678 32.1511 18.49 31.9489 18.49 31.7C18.49 31.4511 18.5678 31.2489 18.7233 31.0933C18.8789 30.9378 19.0811 30.86 19.33 30.86H24.8367L28.1967 21.8067C28.2589 21.62 28.3678 21.48 28.5233 21.3867C28.6789 21.2933 28.8189 21.2155 28.9433 21.1533H29.0367Z" fill="white"/>
</g>
<defs>
<clipPath id="clip0_3_243">
<rect width="28" height="28" fill="white" transform="matrix(1 0 0 -1 18.49 45.7)"/>
</clipPath>
</defs>
</svg>
