<svg width="29" height="43" viewBox="0 0 29 43" fill="none" xmlns="http://www.w3.org/2000/svg">
<g clip-path="url(#clip0_3_280)">
<path d="M4.03665 8.47317C3.53887 8.47317 3.11887 8.64428 2.77665 8.9865C2.43443 9.32872 2.26332 9.73317 2.26332 10.1998C2.26332 10.6665 2.43443 11.0709 2.77665 11.4132C3.11887 11.7554 3.52332 11.9265 3.98998 11.9265C4.45665 11.9265 4.8611 11.7554 5.20332 11.4132C5.54554 11.0709 5.71665 10.6665 5.71665 10.1998C5.71665 9.73317 5.54554 9.32872 5.20332 8.9865C4.8611 8.64428 4.47221 8.47317 4.03665 8.47317ZM0.489985 10.1532C0.489985 9.28206 0.78554 8.51983 1.37665 7.8665C1.96776 7.21317 2.69887 6.82428 3.56998 6.69983C4.4411 6.57539 5.23443 6.76206 5.94998 7.25983C6.66554 7.75761 7.14776 8.44206 7.39665 9.31317H21.5833C21.8322 8.50428 22.2989 7.85094 22.9833 7.35317C23.6678 6.85539 24.43 6.63761 25.27 6.69983C26.11 6.76206 26.8411 7.10428 27.4633 7.7265C28.0855 8.34872 28.4278 9.07983 28.49 9.91983C28.5522 10.7598 28.3344 11.5221 27.8367 12.2065C27.3389 12.8909 26.6855 13.3576 25.8767 13.6065V27.7932C26.6855 28.0421 27.3389 28.5087 27.8367 29.1932C28.3344 29.8776 28.5522 30.6398 28.49 31.4798C28.4278 32.3198 28.0855 33.0509 27.4633 33.6732C26.8411 34.2954 26.11 34.6376 25.27 34.6998C24.43 34.7621 23.6678 34.5443 22.9833 34.0465C22.2989 33.5487 21.8322 32.8954 21.5833 32.0865H7.39665C7.14776 32.8954 6.6811 33.5487 5.99665 34.0465C5.31221 34.5443 4.54998 34.7621 3.70998 34.6998C2.86998 34.6376 2.13887 34.2954 1.51665 33.6732C0.894429 33.0509 0.552207 32.3198 0.489985 31.4798C0.427762 30.6398 0.64554 29.8776 1.14332 29.1932C1.6411 28.5087 2.29443 28.0421 3.10332 27.7932V13.6065C2.35665 13.4198 1.73443 12.9998 1.23665 12.3465C0.738873 11.6932 0.489985 10.9932 0.489985 10.2465V10.1532ZM4.87665 13.6065V27.7932C5.49887 27.9798 6.02776 28.2909 6.46332 28.7265C6.89887 29.1621 7.20998 29.6909 7.39665 30.3132H21.5833C21.77 29.6909 22.0811 29.1621 22.5167 28.7265C22.9522 28.2909 23.4811 27.9798 24.1033 27.7932V13.6065C23.4811 13.4198 22.9522 13.1087 22.5167 12.6732C22.0811 12.2376 21.77 11.7087 21.5833 11.0865H7.39665C7.20998 11.7087 6.89887 12.2376 6.46332 12.6732C6.02776 13.1087 5.49887 13.4198 4.87665 13.6065ZM25.0367 8.47317C24.5389 8.47317 24.1189 8.64428 23.7767 8.9865C23.4344 9.32872 23.2633 9.73317 23.2633 10.1998C23.2633 10.6665 23.4344 11.0709 23.7767 11.4132C24.1189 11.7554 24.5233 11.9265 24.99 11.9265C25.4567 11.9265 25.8611 11.7554 26.2033 11.4132C26.5455 11.0709 26.7167 10.6665 26.7167 10.1998C26.7167 9.73317 26.5455 9.32872 26.2033 8.9865C25.8611 8.64428 25.4722 8.47317 25.0367 8.47317ZM4.03665 29.4732C3.53887 29.4732 3.11887 29.6443 2.77665 29.9865C2.43443 30.3287 2.26332 30.7332 2.26332 31.1998C2.26332 31.6665 2.43443 32.0709 2.77665 32.4132C3.11887 32.7554 3.52332 32.9265 3.98998 32.9265C4.45665 32.9265 4.8611 32.7554 5.20332 32.4132C5.54554 32.0709 5.71665 31.6665 5.71665 31.1998C5.71665 30.7332 5.54554 30.3287 5.20332 29.9865C4.8611 29.6443 4.47221 29.4732 4.03665 29.4732ZM25.0367 29.4732C24.5389 29.4732 24.1189 29.6443 23.7767 29.9865C23.4344 30.3287 23.2633 30.7332 23.2633 31.1998C23.2633 31.6665 23.4344 32.0709 23.7767 32.4132C24.1189 32.7554 24.5233 32.9265 24.99 32.9265C25.4567 32.9265 25.8611 32.7554 26.2033 32.4132C26.5455 32.0709 26.7167 31.6665 26.7167 31.1998C26.7167 30.7332 26.5455 30.3287 26.2033 29.9865C25.8611 29.6443 25.4722 29.4732 25.0367 29.4732Z" fill="white"/>
</g>
<defs>
<clipPath id="clip0_3_280">
<rect width="28" height="28" fill="white" transform="matrix(1 0 0 -1 0.48999 34.7)"/>
</clipPath>
</defs>
</svg>
