<svg width="29" height="43" viewBox="0 0 29 43" fill="none" xmlns="http://www.w3.org/2000/svg">
<g clip-path="url(#clip0_3_292)">
<path d="M6.64 6.69995C6.88888 6.69995 7.09111 6.77773 7.24666 6.93328C7.40222 7.08884 7.48 7.29106 7.48 7.53995V8.47328H21.48V7.53995C21.48 7.29106 21.5578 7.08884 21.7133 6.93328C21.8689 6.77773 22.0711 6.69995 22.32 6.69995C22.5689 6.69995 22.7867 6.77773 22.9733 6.93328C23.16 7.08884 23.2533 7.29106 23.2533 7.53995V8.47328H25.0267C25.96 8.47328 26.7689 8.81551 27.4533 9.49995C28.1378 10.1844 28.48 10.9933 28.48 11.9266V31.1533C28.48 32.1488 28.1378 32.9888 27.4533 33.6733C26.7689 34.3577 25.9289 34.7 24.9333 34.7H4.02666C3.03111 34.7 2.19111 34.3577 1.50666 33.6733C0.822218 32.9888 0.479996 32.18 0.479996 31.2466V11.9266C0.479996 10.9933 0.822218 10.1844 1.50666 9.49995C2.19111 8.81551 3.03111 8.47328 4.02666 8.47328H5.70666V7.53995C5.70666 7.29106 5.8 7.08884 5.98666 6.93328C6.17333 6.77773 6.39111 6.69995 6.64 6.69995ZM4.02666 10.1533C3.52888 10.1533 3.10888 10.3244 2.76666 10.6666C2.42444 11.0088 2.25333 11.4288 2.25333 11.9266V13.7H26.7067V11.9266C26.7067 11.4288 26.5356 11.0088 26.1933 10.6666C25.8511 10.3244 25.4622 10.1533 25.0267 10.1533H4.02666ZM26.7067 15.4733H2.25333V31.1533C2.25333 31.6511 2.42444 32.0711 2.76666 32.4133C3.10888 32.7555 3.52888 32.9266 4.02666 32.9266H25.0267C25.4622 32.9266 25.8511 32.7555 26.1933 32.4133C26.5356 32.0711 26.7067 31.6511 26.7067 31.1533V15.4733ZM19.7067 19.86C19.7067 19.6111 19.8 19.3933 19.9867 19.2066C20.1733 19.02 20.3911 18.9266 20.64 18.9266H22.32C22.5689 18.9266 22.7867 19.02 22.9733 19.2066C23.16 19.3933 23.2533 19.6111 23.2533 19.86V21.54C23.2533 21.7888 23.16 22.0066 22.9733 22.1933C22.7867 22.38 22.5689 22.4733 22.32 22.4733H20.64C20.3911 22.4733 20.1733 22.38 19.9867 22.1933C19.8 22.0066 19.7067 21.7888 19.7067 21.54V19.86ZM14.48 19.86C14.48 19.6111 14.5578 19.3933 14.7133 19.2066C14.8689 19.02 15.0711 18.9266 15.32 18.9266H17.0933C17.3422 18.9266 17.56 19.02 17.7467 19.2066C17.9333 19.3933 18.0267 19.6111 18.0267 19.86V21.54C18.0267 21.7888 17.9333 22.0066 17.7467 22.1933C17.56 22.38 17.3422 22.4733 17.0933 22.4733H15.32C15.0711 22.4733 14.8689 22.38 14.7133 22.1933C14.5578 22.0066 14.48 21.7888 14.48 21.54V19.86ZM11.0267 25.0866C10.9644 24.8377 11.0267 24.62 11.2133 24.4333C11.4 24.2466 11.6178 24.1533 11.8667 24.1533H13.64C13.8889 24.2155 14.0911 24.3244 14.2467 24.48C14.4022 24.6355 14.48 24.8377 14.48 25.0866V26.86C14.48 27.1088 14.4022 27.3111 14.2467 27.4666C14.0911 27.6222 13.8889 27.7 13.64 27.7H11.8667C11.6178 27.7 11.4 27.6222 11.2133 27.4666C11.0267 27.3111 10.9333 27.1088 10.9333 26.86L11.0267 25.0866ZM5.70666 25.0866C5.70666 24.8377 5.8 24.62 5.98666 24.4333C6.17333 24.2466 6.39111 24.1533 6.64 24.1533H8.32C8.56888 24.2155 8.78666 24.3244 8.97333 24.48C9.16 24.6355 9.25333 24.8377 9.25333 25.0866V26.86C9.25333 27.1088 9.16 27.3111 8.97333 27.4666C8.78666 27.6222 8.56888 27.7 8.32 27.7H6.64C6.39111 27.7 6.17333 27.6222 5.98666 27.4666C5.8 27.3111 5.70666 27.1088 5.70666 26.86V25.0866Z" fill="white"/>
</g>
<defs>
<clipPath id="clip0_3_292">
<rect width="28" height="28" fill="white" transform="matrix(1 0 0 -1 0.479996 34.7)"/>
</clipPath>
</defs>
</svg>
