<svg width="29" height="43" viewBox="0 0 29 43" fill="none" xmlns="http://www.w3.org/2000/svg">
<g clip-path="url(#clip0_3_304)">
<path d="M25.0066 8.47324C25.4422 8.47324 25.8311 8.64435 26.1733 8.98657C26.5155 9.32879 26.6866 9.71768 26.6866 10.1532V24.1532C26.6866 24.651 26.5155 25.071 26.1733 25.4132C25.8311 25.7555 25.4422 25.9266 25.0066 25.9266H20.62C20.06 25.9266 19.5311 26.051 19.0333 26.2999C18.5355 26.5488 18.1311 26.891 17.82 27.3266L14.46 31.8066L11.1 27.3266C10.7888 26.891 10.3844 26.5488 9.88663 26.2999C9.38885 26.051 8.85996 25.9266 8.29996 25.9266H4.00663C3.50885 25.9266 3.08885 25.7555 2.74663 25.4132C2.40441 25.071 2.23329 24.651 2.23329 24.1532V10.1532C2.23329 9.71768 2.40441 9.32879 2.74663 8.98657C3.08885 8.64435 3.47774 8.47324 3.91329 8.47324H25.0066ZM4.00663 6.69991C3.01107 6.69991 2.17107 7.04213 1.48663 7.72657C0.802183 8.41102 0.459961 9.25102 0.459961 10.2466V24.1532C0.459961 25.1488 0.802183 25.9888 1.48663 26.6732C2.17107 27.3577 2.97996 27.6999 3.91329 27.6999H8.29996C8.92218 27.6999 9.38885 27.9488 9.69996 28.4466L13.06 32.8332C13.4333 33.2688 13.9 33.4866 14.46 33.4866C15.02 33.4866 15.4866 33.2688 15.86 32.8332L19.22 28.3532C19.5311 27.9177 19.9977 27.6999 20.62 27.6999H25.0066C25.94 27.6999 26.7488 27.3577 27.4333 26.6732C28.1177 25.9888 28.46 25.1488 28.46 24.1532V10.1532C28.46 9.21991 28.1177 8.41102 27.4333 7.72657C26.7488 7.04213 25.9088 6.69991 24.9133 6.69991H4.00663ZM5.68663 12.8599C5.68663 12.611 5.77996 12.3932 5.96663 12.2066C6.15329 12.0199 6.37107 11.9266 6.61996 11.9266H22.3C22.5488 11.9266 22.7666 12.0199 22.9533 12.2066C23.14 12.3932 23.2333 12.611 23.2333 12.8599C23.2333 13.1088 23.14 13.311 22.9533 13.4666C22.7666 13.6221 22.5488 13.6999 22.3 13.6999H6.61996C6.37107 13.6999 6.15329 13.6221 5.96663 13.4666C5.77996 13.311 5.68663 13.1088 5.68663 12.8599ZM5.68663 17.1532C5.68663 16.9666 5.77996 16.7799 5.96663 16.5932C6.15329 16.4066 6.37107 16.3132 6.61996 16.3132H22.3C22.5488 16.3132 22.7666 16.4066 22.9533 16.5932C23.14 16.7799 23.2333 16.9821 23.2333 17.1999C23.2333 17.4177 23.14 17.6199 22.9533 17.8066C22.7666 17.9932 22.5488 18.0866 22.3 18.0866H6.61996C6.37107 18.0866 6.15329 17.9932 5.96663 17.8066C5.77996 17.6199 5.68663 17.4332 5.68663 17.2466V17.1532ZM5.68663 21.5399C5.68663 21.291 5.77996 21.0888 5.96663 20.9332C6.15329 20.7777 6.37107 20.6999 6.61996 20.6999H15.3C15.5489 20.6999 15.7666 20.7777 15.9533 20.9332C16.14 21.0888 16.2333 21.291 16.2333 21.5399C16.2333 21.7888 16.14 22.0066 15.9533 22.1932C15.7666 22.3799 15.5489 22.4732 15.3 22.4732H6.61996C6.37107 22.4732 6.15329 22.3799 5.96663 22.1932C5.77996 22.0066 5.68663 21.7888 5.68663 21.5399Z" fill="white"/>
</g>
<defs>
<clipPath id="clip0_3_304">
<rect width="28" height="28" fill="white" transform="matrix(1 0 0 -1 0.459961 34.7)"/>
</clipPath>
</defs>
</svg>
