<svg width="29" height="29" viewBox="0 0 29 29" fill="none" xmlns="http://www.w3.org/2000/svg">
<g clip-path="url(#clip0_3_257)">
<path d="M5.8 6.01996C4.68 7.20218 3.80888 8.53996 3.18666 10.0333C2.56444 11.5266 2.25333 13.0822 2.25333 14.7C2.25333 16.3177 2.56444 17.8733 3.18666 19.3666C3.80888 20.86 4.68 22.1977 5.8 23.38C5.98666 23.5666 6.08 23.7688 6.08 23.9866C6.08 24.2044 5.98666 24.4066 5.8 24.5933C5.61333 24.78 5.41111 24.8733 5.19333 24.8733C4.97555 24.8733 4.77333 24.78 4.58666 24.5933C3.28 23.2866 2.26888 21.7777 1.55333 20.0666C0.837774 18.3555 0.479996 16.5666 0.479996 14.7C0.479996 12.8333 0.837774 11.0444 1.55333 9.33329C2.26888 7.62218 3.28 6.11329 4.58666 4.80662C4.77333 4.61996 4.97555 4.52662 5.19333 4.52662C5.41111 4.52662 5.61333 4.61996 5.8 4.80662C5.98666 4.99329 6.08 5.19551 6.08 5.41329C6.08 5.63107 5.98666 5.83329 5.8 6.01996ZM9.53333 9.75329C8.66222 10.6244 8.05555 11.6666 7.71333 12.88C7.37111 14.0933 7.37111 15.3066 7.71333 16.52C8.05555 17.7333 8.66222 18.7755 9.53333 19.6466C9.72 19.8333 9.81333 20.0511 9.81333 20.3C9.81333 20.5488 9.72 20.7511 9.53333 20.9066C9.34666 21.0622 9.12888 21.14 8.88 21.14C8.63111 21.14 8.44444 21.0466 8.32 20.86C7.51111 20.0511 6.87333 19.1177 6.40666 18.06C5.94 17.0022 5.70666 15.8822 5.70666 14.7C5.70666 13.5177 5.94 12.3977 6.40666 11.34C6.87333 10.2822 7.51111 9.34885 8.32 8.53996C8.44444 8.35329 8.63111 8.25996 8.88 8.25996C9.12888 8.25996 9.34666 8.33774 9.53333 8.49329C9.72 8.64885 9.81333 8.85107 9.81333 9.09996C9.81333 9.34885 9.72 9.56662 9.53333 9.75329ZM19.4267 8.53996C19.6133 8.35329 19.8311 8.25996 20.08 8.25996C20.3289 8.25996 20.5156 8.35329 20.64 8.53996C21.4489 9.34885 22.0867 10.2822 22.5533 11.34C23.02 12.3977 23.2533 13.5177 23.2533 14.7C23.2533 15.8822 23.02 17.0022 22.5533 18.06C22.0867 19.1177 21.4489 20.0511 20.64 20.86C20.3911 21.1088 20.1111 21.1866 19.8 21.0933C19.4889 21 19.2867 20.7977 19.1933 20.4866C19.1 20.1755 19.1778 19.8955 19.4267 19.6466C20.2978 18.7755 20.9044 17.7333 21.2467 16.52C21.5889 15.3066 21.5889 14.0933 21.2467 12.88C20.9044 11.6666 20.2978 10.6244 19.4267 9.75329C19.24 9.56662 19.1467 9.34885 19.1467 9.09996C19.1467 8.85107 19.24 8.6644 19.4267 8.53996ZM23.16 4.80662C23.3467 4.61996 23.5489 4.52662 23.7667 4.52662C23.9844 4.52662 24.1867 4.61996 24.3733 4.80662C26.1778 6.61107 27.3911 8.71107 28.0133 11.1066C28.6356 13.5022 28.6356 15.8977 28.0133 18.2933C27.3911 20.6888 26.1778 22.7888 24.3733 24.5933C24.1867 24.78 23.9844 24.8733 23.7667 24.8733C23.5489 24.8733 23.3467 24.78 23.16 24.5933C22.9733 24.4066 22.88 24.2044 22.88 23.9866C22.88 23.7688 22.9733 23.5666 23.16 23.38C24.28 22.1977 25.1511 20.86 25.7733 19.3666C26.3956 17.8733 26.7067 16.3177 26.7067 14.7C26.7067 13.0822 26.3956 11.5266 25.7733 10.0333C25.1511 8.53996 24.28 7.20218 23.16 6.01996C22.9733 5.83329 22.88 5.63107 22.88 5.41329C22.88 5.19551 22.9733 4.99329 23.16 4.80662ZM18.0267 14.7C18.0267 15.6955 17.6844 16.5355 17 17.22C16.3156 17.9044 15.4756 18.2311 14.48 18.2C13.4844 18.1688 12.66 17.8266 12.0067 17.1733C11.3533 16.52 11.0267 15.6955 11.0267 14.7C11.0267 13.7044 11.3533 12.8644 12.0067 12.18C12.66 11.4955 13.4844 11.1533 14.48 11.1533C15.4756 11.1533 16.3156 11.4955 17 12.18C17.6844 12.8644 18.0267 13.7044 18.0267 14.7Z" fill="white"/>
</g>
<defs>
<clipPath id="clip0_3_257">
<rect width="28" height="28" fill="white" transform="matrix(1 0 0 -1 0.479996 28.7)"/>
</clipPath>
</defs>
</svg>
