<svg width="65" height="65" viewBox="0 0 65 65" fill="none" xmlns="http://www.w3.org/2000/svg">
<rect x="0.459961" y="0.800049" width="64" height="64" rx="4" fill="black"/>
<g clip-path="url(#clip0_3_267)">
<path d="M32.46 17.7C32.6466 17.7 32.8178 17.7466 32.9733 17.84C33.1289 17.9333 33.2378 18.0733 33.3 18.26L34.3266 21.1533H43.0066C43.4422 21.1533 43.8311 21.3244 44.1733 21.6666C44.5155 22.0088 44.6866 22.4288 44.6866 22.9266V35.1533C44.6866 35.6511 44.5155 36.0711 44.1733 36.4133C43.8311 36.7555 43.4422 36.9266 43.0066 36.9266H39.74L42.0733 43.6466C42.1355 43.8955 42.1044 44.1288 41.98 44.3466C41.8555 44.5644 41.6844 44.7044 41.4666 44.7666C41.2489 44.8288 41.0311 44.8133 40.8133 44.72C40.5955 44.6266 40.4555 44.4555 40.3933 44.2066L37.8733 36.9266H33.3V42.1533C33.3 42.4022 33.2222 42.62 33.0666 42.8066C32.9111 42.9933 32.7089 43.0866 32.46 43.0866C32.2111 43.0866 32.0089 42.9933 31.8533 42.8066C31.6978 42.62 31.62 42.4022 31.62 42.1533V36.9266H27.0466L24.5266 44.2066C24.4644 44.4555 24.3244 44.6266 24.1066 44.72C23.8889 44.8133 23.6711 44.8288 23.4533 44.7666C23.2355 44.7044 23.0644 44.5644 22.94 44.3466C22.8155 44.1288 22.7844 43.8955 22.8466 43.6466L25.18 36.9266H22.0066C21.5089 36.9266 21.0889 36.7555 20.7466 36.4133C20.4044 36.0711 20.2333 35.6511 20.2333 35.1533V22.9266C20.2333 22.4288 20.4044 22.0088 20.7466 21.6666C21.0889 21.3244 21.4778 21.1533 21.9133 21.1533H30.5933L31.62 18.26C31.6822 18.0733 31.7911 17.9333 31.9466 17.84C32.1022 17.7466 32.2733 17.7 32.46 17.7ZM22.0066 22.9266V35.1533H43.0066V22.9266H22.0066Z" fill="white"/>
</g>
<defs>
<clipPath id="clip0_3_267">
<rect width="28" height="28" fill="white" transform="matrix(1 0 0 -1 18.46 45.7)"/>
</clipPath>
</defs>
</svg>
