<svg width="65" height="65" viewBox="0 0 65 65" fill="none" xmlns="http://www.w3.org/2000/svg">
<rect x="0.48999" y="0.800049" width="64" height="64" rx="4" fill="black"/>
<g clip-path="url(#clip0_3_279)">
<path d="M22.0367 19.4732C21.5389 19.4732 21.1189 19.6443 20.7767 19.9865C20.4344 20.3287 20.2633 20.7332 20.2633 21.1998C20.2633 21.6665 20.4344 22.0709 20.7767 22.4132C21.1189 22.7554 21.5233 22.9265 21.99 22.9265C22.4567 22.9265 22.8611 22.7554 23.2033 22.4132C23.5455 22.0709 23.7167 21.6665 23.7167 21.1998C23.7167 20.7332 23.5455 20.3287 23.2033 19.9865C22.8611 19.6443 22.4722 19.4732 22.0367 19.4732ZM18.49 21.1532C18.49 20.2821 18.7855 19.5198 19.3767 18.8665C19.9678 18.2132 20.6989 17.8243 21.57 17.6998C22.4411 17.5754 23.2344 17.7621 23.95 18.2598C24.6655 18.7576 25.1478 19.4421 25.3967 20.3132H39.5833C39.8322 19.5043 40.2989 18.8509 40.9833 18.3532C41.6678 17.8554 42.43 17.6376 43.27 17.6998C44.11 17.7621 44.8411 18.1043 45.4633 18.7265C46.0855 19.3487 46.4278 20.0798 46.49 20.9198C46.5522 21.7598 46.3344 22.5221 45.8367 23.2065C45.3389 23.8909 44.6855 24.3576 43.8767 24.6065V38.7932C44.6855 39.0421 45.3389 39.5087 45.8367 40.1932C46.3344 40.8776 46.5522 41.6398 46.49 42.4798C46.4278 43.3198 46.0855 44.0509 45.4633 44.6732C44.8411 45.2954 44.11 45.6376 43.27 45.6998C42.43 45.7621 41.6678 45.5443 40.9833 45.0465C40.2989 44.5487 39.8322 43.8954 39.5833 43.0865H25.3967C25.1478 43.8954 24.6811 44.5487 23.9967 45.0465C23.3122 45.5443 22.55 45.7621 21.71 45.6998C20.87 45.6376 20.1389 45.2954 19.5167 44.6732C18.8944 44.0509 18.5522 43.3198 18.49 42.4798C18.4278 41.6398 18.6455 40.8776 19.1433 40.1932C19.6411 39.5087 20.2944 39.0421 21.1033 38.7932V24.6065C20.3567 24.4198 19.7344 23.9998 19.2367 23.3465C18.7389 22.6932 18.49 21.9932 18.49 21.2465V21.1532ZM22.8767 24.6065V38.7932C23.4989 38.9798 24.0278 39.2909 24.4633 39.7265C24.8989 40.1621 25.21 40.6909 25.3967 41.3132H39.5833C39.77 40.6909 40.0811 40.1621 40.5167 39.7265C40.9522 39.2909 41.4811 38.9798 42.1033 38.7932V24.6065C41.4811 24.4198 40.9522 24.1087 40.5167 23.6732C40.0811 23.2376 39.77 22.7087 39.5833 22.0865H25.3967C25.21 22.7087 24.8989 23.2376 24.4633 23.6732C24.0278 24.1087 23.4989 24.4198 22.8767 24.6065ZM43.0367 19.4732C42.5389 19.4732 42.1189 19.6443 41.7767 19.9865C41.4344 20.3287 41.2633 20.7332 41.2633 21.1998C41.2633 21.6665 41.4344 22.0709 41.7767 22.4132C42.1189 22.7554 42.5233 22.9265 42.99 22.9265C43.4567 22.9265 43.8611 22.7554 44.2033 22.4132C44.5455 22.0709 44.7167 21.6665 44.7167 21.1998C44.7167 20.7332 44.5455 20.3287 44.2033 19.9865C43.8611 19.6443 43.4722 19.4732 43.0367 19.4732ZM22.0367 40.4732C21.5389 40.4732 21.1189 40.6443 20.7767 40.9865C20.4344 41.3287 20.2633 41.7332 20.2633 42.1998C20.2633 42.6665 20.4344 43.0709 20.7767 43.4132C21.1189 43.7554 21.5233 43.9265 21.99 43.9265C22.4567 43.9265 22.8611 43.7554 23.2033 43.4132C23.5455 43.0709 23.7167 42.6665 23.7167 42.1998C23.7167 41.7332 23.5455 41.3287 23.2033 40.9865C22.8611 40.6443 22.4722 40.4732 22.0367 40.4732ZM43.0367 40.4732C42.5389 40.4732 42.1189 40.6443 41.7767 40.9865C41.4344 41.3287 41.2633 41.7332 41.2633 42.1998C41.2633 42.6665 41.4344 43.0709 41.7767 43.4132C42.1189 43.7554 42.5233 43.9265 42.99 43.9265C43.4567 43.9265 43.8611 43.7554 44.2033 43.4132C44.5455 43.0709 44.7167 42.6665 44.7167 42.1998C44.7167 41.7332 44.5455 41.3287 44.2033 40.9865C43.8611 40.6443 43.4722 40.4732 43.0367 40.4732Z" fill="white"/>
</g>
<defs>
<clipPath id="clip0_3_279">
<rect width="28" height="28" fill="white" transform="matrix(1 0 0 -1 18.49 45.7)"/>
</clipPath>
</defs>
</svg>
