<svg width="65" height="65" viewBox="0 0 65 65" fill="none" xmlns="http://www.w3.org/2000/svg">
<rect x="0.459961" y="0.800049" width="64" height="64" rx="4" fill="black"/>
<g clip-path="url(#clip0_3_303)">
<path d="M43.0066 19.4732C43.4422 19.4732 43.8311 19.6444 44.1733 19.9866C44.5155 20.3288 44.6866 20.7177 44.6866 21.1532V35.1532C44.6866 35.651 44.5155 36.071 44.1733 36.4132C43.8311 36.7555 43.4422 36.9266 43.0066 36.9266H38.62C38.06 36.9266 37.5311 37.051 37.0333 37.2999C36.5355 37.5488 36.1311 37.891 35.82 38.3266L32.46 42.8066L29.1 38.3266C28.7888 37.891 28.3844 37.5488 27.8866 37.2999C27.3889 37.051 26.86 36.9266 26.3 36.9266H22.0066C21.5088 36.9266 21.0888 36.7555 20.7466 36.4132C20.4044 36.071 20.2333 35.651 20.2333 35.1532V21.1532C20.2333 20.7177 20.4044 20.3288 20.7466 19.9866C21.0888 19.6444 21.4777 19.4732 21.9133 19.4732H43.0066ZM22.0066 17.6999C21.0111 17.6999 20.1711 18.0421 19.4866 18.7266C18.8022 19.411 18.46 20.251 18.46 21.2466V35.1532C18.46 36.1488 18.8022 36.9888 19.4866 37.6732C20.1711 38.3577 20.98 38.6999 21.9133 38.6999H26.3C26.9222 38.6999 27.3889 38.9488 27.7 39.4466L31.06 43.8332C31.4333 44.2688 31.9 44.4866 32.46 44.4866C33.02 44.4866 33.4866 44.2688 33.86 43.8332L37.22 39.3532C37.5311 38.9177 37.9977 38.6999 38.62 38.6999H43.0066C43.94 38.6999 44.7488 38.3577 45.4333 37.6732C46.1177 36.9888 46.46 36.1488 46.46 35.1532V21.1532C46.46 20.2199 46.1177 19.411 45.4333 18.7266C44.7488 18.0421 43.9088 17.6999 42.9133 17.6999H22.0066ZM23.6866 23.8599C23.6866 23.611 23.78 23.3932 23.9666 23.2066C24.1533 23.0199 24.3711 22.9266 24.62 22.9266H40.3C40.5488 22.9266 40.7666 23.0199 40.9533 23.2066C41.14 23.3932 41.2333 23.611 41.2333 23.8599C41.2333 24.1088 41.14 24.311 40.9533 24.4666C40.7666 24.6221 40.5488 24.6999 40.3 24.6999H24.62C24.3711 24.6999 24.1533 24.6221 23.9666 24.4666C23.78 24.311 23.6866 24.1088 23.6866 23.8599ZM23.6866 28.1532C23.6866 27.9666 23.78 27.7799 23.9666 27.5932C24.1533 27.4066 24.3711 27.3132 24.62 27.3132H40.3C40.5488 27.3132 40.7666 27.4066 40.9533 27.5932C41.14 27.7799 41.2333 27.9821 41.2333 28.1999C41.2333 28.4177 41.14 28.6199 40.9533 28.8066C40.7666 28.9932 40.5488 29.0866 40.3 29.0866H24.62C24.3711 29.0866 24.1533 28.9932 23.9666 28.8066C23.78 28.6199 23.6866 28.4332 23.6866 28.2466V28.1532ZM23.6866 32.5399C23.6866 32.291 23.78 32.0888 23.9666 31.9332C24.1533 31.7777 24.3711 31.6999 24.62 31.6999H33.3C33.5489 31.6999 33.7666 31.7777 33.9533 31.9332C34.14 32.0888 34.2333 32.291 34.2333 32.5399C34.2333 32.7888 34.14 33.0066 33.9533 33.1932C33.7666 33.3799 33.5489 33.4732 33.3 33.4732H24.62C24.3711 33.4732 24.1533 33.3799 23.9666 33.1932C23.78 33.0066 23.6866 32.7888 23.6866 32.5399Z" fill="white"/>
</g>
<defs>
<clipPath id="clip0_3_303">
<rect width="28" height="28" fill="white" transform="matrix(1 0 0 -1 18.46 45.7)"/>
</clipPath>
</defs>
</svg>
