<svg width="29" height="43" viewBox="0 0 29 43" fill="none" xmlns="http://www.w3.org/2000/svg">
<g clip-path="url(#clip0_3_244)">
<path d="M11.0367 10.1533C11.1611 10.2155 11.3011 10.2933 11.4567 10.3867C11.6122 10.48 11.7211 10.62 11.7833 10.8067L18.0367 27.7933L20.65 20.42C20.7122 20.2333 20.8211 20.0933 20.9767 20C21.1322 19.9067 21.3033 19.86 21.49 19.86H27.65C27.8989 19.86 28.1011 19.9378 28.2567 20.0933C28.4122 20.2489 28.49 20.4511 28.49 20.7C28.49 20.9489 28.4122 21.1511 28.2567 21.3067C28.1011 21.4622 27.8989 21.54 27.65 21.54H22.1433L18.7833 30.5933C18.7211 30.78 18.6122 30.92 18.4567 31.0133C18.3011 31.1067 18.1455 31.1533 17.99 31.1533C17.8344 31.1533 17.6789 31.1067 17.5233 31.0133C17.3678 30.92 17.2589 30.78 17.1967 30.5933L11.0367 13.6067L8.32999 20.98C8.26777 21.1667 8.15888 21.3067 8.00332 21.4C7.84777 21.4933 7.67666 21.54 7.48999 21.54H1.32999C1.0811 21.54 0.878879 21.4622 0.723324 21.3067C0.567768 21.1511 0.48999 20.9489 0.48999 20.7C0.48999 20.4511 0.567768 20.2489 0.723324 20.0933C0.878879 19.9378 1.0811 19.86 1.32999 19.86H6.83666L10.1967 10.8067C10.2589 10.62 10.3678 10.48 10.5233 10.3867C10.6789 10.2933 10.8189 10.2155 10.9433 10.1533H11.0367Z" fill="white"/>
</g>
<defs>
<clipPath id="clip0_3_244">
<rect width="28" height="28" fill="white" transform="matrix(1 0 0 -1 0.48999 34.7)"/>
</clipPath>
</defs>
</svg>
