<svg width="29" height="43" viewBox="0 0 29 43" fill="none" xmlns="http://www.w3.org/2000/svg">
<g clip-path="url(#clip0_3_256)">
<path d="M5.8 12.02C4.68 13.2022 3.80888 14.54 3.18666 16.0333C2.56444 17.5266 2.25333 19.0822 2.25333 20.7C2.25333 22.3177 2.56444 23.8733 3.18666 25.3666C3.80888 26.86 4.68 28.1977 5.8 29.38C5.98666 29.5666 6.08 29.7688 6.08 29.9866C6.08 30.2044 5.98666 30.4066 5.8 30.5933C5.61333 30.78 5.41111 30.8733 5.19333 30.8733C4.97555 30.8733 4.77333 30.78 4.58666 30.5933C3.28 29.2866 2.26888 27.7777 1.55333 26.0666C0.837774 24.3555 0.479996 22.5666 0.479996 20.7C0.479996 18.8333 0.837774 17.0444 1.55333 15.3333C2.26888 13.6222 3.28 12.1133 4.58666 10.8066C4.77333 10.62 4.97555 10.5266 5.19333 10.5266C5.41111 10.5266 5.61333 10.62 5.8 10.8066C5.98666 10.9933 6.08 11.1955 6.08 11.4133C6.08 11.6311 5.98666 11.8333 5.8 12.02ZM9.53333 15.7533C8.66222 16.6244 8.05555 17.6666 7.71333 18.88C7.37111 20.0933 7.37111 21.3066 7.71333 22.52C8.05555 23.7333 8.66222 24.7755 9.53333 25.6466C9.72 25.8333 9.81333 26.0511 9.81333 26.3C9.81333 26.5488 9.72 26.7511 9.53333 26.9066C9.34666 27.0622 9.12888 27.14 8.88 27.14C8.63111 27.14 8.44444 27.0466 8.32 26.86C7.51111 26.0511 6.87333 25.1177 6.40666 24.06C5.94 23.0022 5.70666 21.8822 5.70666 20.7C5.70666 19.5177 5.94 18.3977 6.40666 17.34C6.87333 16.2822 7.51111 15.3488 8.32 14.54C8.44444 14.3533 8.63111 14.26 8.88 14.26C9.12888 14.26 9.34666 14.3377 9.53333 14.4933C9.72 14.6488 9.81333 14.8511 9.81333 15.1C9.81333 15.3488 9.72 15.5666 9.53333 15.7533ZM19.4267 14.54C19.6133 14.3533 19.8311 14.26 20.08 14.26C20.3289 14.26 20.5156 14.3533 20.64 14.54C21.4489 15.3488 22.0867 16.2822 22.5533 17.34C23.02 18.3977 23.2533 19.5177 23.2533 20.7C23.2533 21.8822 23.02 23.0022 22.5533 24.06C22.0867 25.1177 21.4489 26.0511 20.64 26.86C20.3911 27.1088 20.1111 27.1866 19.8 27.0933C19.4889 27 19.2867 26.7977 19.1933 26.4866C19.1 26.1755 19.1778 25.8955 19.4267 25.6466C20.2978 24.7755 20.9044 23.7333 21.2467 22.52C21.5889 21.3066 21.5889 20.0933 21.2467 18.88C20.9044 17.6666 20.2978 16.6244 19.4267 15.7533C19.24 15.5666 19.1467 15.3488 19.1467 15.1C19.1467 14.8511 19.24 14.6644 19.4267 14.54ZM23.16 10.8066C23.3467 10.62 23.5489 10.5266 23.7667 10.5266C23.9844 10.5266 24.1867 10.62 24.3733 10.8066C26.1778 12.6111 27.3911 14.7111 28.0133 17.1066C28.6356 19.5022 28.6356 21.8977 28.0133 24.2933C27.3911 26.6888 26.1778 28.7888 24.3733 30.5933C24.1867 30.78 23.9844 30.8733 23.7667 30.8733C23.5489 30.8733 23.3467 30.78 23.16 30.5933C22.9733 30.4066 22.88 30.2044 22.88 29.9866C22.88 29.7688 22.9733 29.5666 23.16 29.38C24.28 28.1977 25.1511 26.86 25.7733 25.3666C26.3956 23.8733 26.7067 22.3177 26.7067 20.7C26.7067 19.0822 26.3956 17.5266 25.7733 16.0333C25.1511 14.54 24.28 13.2022 23.16 12.02C22.9733 11.8333 22.88 11.6311 22.88 11.4133C22.88 11.1955 22.9733 10.9933 23.16 10.8066ZM18.0267 20.7C18.0267 21.6955 17.6844 22.5355 17 23.22C16.3156 23.9044 15.4756 24.2311 14.48 24.2C13.4844 24.1688 12.66 23.8266 12.0067 23.1733C11.3533 22.52 11.0267 21.6955 11.0267 20.7C11.0267 19.7044 11.3533 18.8644 12.0067 18.18C12.66 17.4955 13.4844 17.1533 14.48 17.1533C15.4756 17.1533 16.3156 17.4955 17 18.18C17.6844 18.8644 18.0267 19.7044 18.0267 20.7Z" fill="white"/>
</g>
<defs>
<clipPath id="clip0_3_256">
<rect width="28" height="28" fill="white" transform="matrix(1 0 0 -1 0.479996 34.7)"/>
</clipPath>
</defs>
</svg>
