<svg width="29" height="43" viewBox="0 0 29 43" fill="none" xmlns="http://www.w3.org/2000/svg">
<g clip-path="url(#clip0_3_268)">
<path d="M14.46 6.69995C14.6466 6.69995 14.8178 6.74662 14.9733 6.83996C15.1289 6.93329 15.2378 7.07329 15.3 7.25996L16.3266 10.1533H25.0066C25.4422 10.1533 25.8311 10.3244 26.1733 10.6666C26.5155 11.0088 26.6866 11.4288 26.6866 11.9266V24.1533C26.6866 24.6511 26.5155 25.0711 26.1733 25.4133C25.8311 25.7555 25.4422 25.9266 25.0066 25.9266H21.74L24.0733 32.6466C24.1355 32.8955 24.1044 33.1288 23.98 33.3466C23.8555 33.5644 23.6844 33.7044 23.4666 33.7666C23.2489 33.8288 23.0311 33.8133 22.8133 33.72C22.5955 33.6266 22.4555 33.4555 22.3933 33.2066L19.8733 25.9266H15.3V31.1533C15.3 31.4022 15.2222 31.62 15.0666 31.8066C14.9111 31.9933 14.7089 32.0866 14.46 32.0866C14.2111 32.0866 14.0089 31.9933 13.8533 31.8066C13.6978 31.62 13.62 31.4022 13.62 31.1533V25.9266H9.04664L6.52664 33.2066C6.46442 33.4555 6.32442 33.6266 6.10664 33.72C5.88886 33.8133 5.67108 33.8288 5.45331 33.7666C5.23553 33.7044 5.06442 33.5644 4.93997 33.3466C4.81553 33.1288 4.78442 32.8955 4.84664 32.6466L7.17997 25.9266H4.00664C3.50886 25.9266 3.08886 25.7555 2.74664 25.4133C2.40442 25.0711 2.23331 24.6511 2.23331 24.1533V11.9266C2.23331 11.4288 2.40442 11.0088 2.74664 10.6666C3.08886 10.3244 3.47775 10.1533 3.91331 10.1533H12.5933L13.62 7.25996C13.6822 7.07329 13.7911 6.93329 13.9466 6.83996C14.1022 6.74662 14.2733 6.69995 14.46 6.69995ZM4.00664 11.9266V24.1533H25.0066V11.9266H4.00664Z" fill="white"/>
</g>
<defs>
<clipPath id="clip0_3_268">
<rect width="28" height="28" fill="white" transform="matrix(1 0 0 -1 0.459961 34.7)"/>
</clipPath>
</defs>
</svg>
